<?xml version="1.0"?>
<svg xmlns:rdf="http://www.w3.org/1999/02/22-rdf-syntax-ns#" xmlns="http://www.w3.org/2000/svg" xmlns:cc="http://creativecommons.org/ns#" xmlns:xlink="http://www.w3.org/1999/xlink" xmlns:dc="http://purl.org/dc/elements/1.1/" xmlns:svg="http://www.w3.org/2000/svg" id="svg2" viewBox="0 0 954.45 954.48" version="1.1">
  <title id="title4008">five euro cent, colored</title>
  <defs id="defs4">
    <linearGradient id="linearGradient4013" y2="532.89" gradientUnits="userSpaceOnUse" y1="532.89" x2="1018" x1="50.543">
      <stop id="stop3858" stop-color="#fff" offset="0"/>
      <stop id="stop3876" stop-color="#fff" offset=".015625"/>
      <stop id="stop3874" stop-color="#fff" offset=".03125"/>
      <stop id="stop3872" stop-color="#fff" offset=".0625"/>
      <stop id="stop3868" stop-color="#fff" offset=".125"/>
      <stop id="stop3866" stop-color="#fff" offset=".25"/>
      <stop id="stop3864" stop-color="#fff" offset=".5"/>
      <stop id="stop3870" stop-color="#fff" offset=".75"/>
      <stop id="stop3860" stop-color="#fff" offset="1"/>
    </linearGradient>
    <linearGradient id="linearGradient4015" y2="713.62" gradientUnits="userSpaceOnUse" y1="289.7" x2="971.33" x1="115.04">
      <stop id="stop3910" stop-color="#108dbb" offset="0"/>
      <stop id="stop3912" stop-color="#108dbb" offset=".015625"/>
      <stop id="stop3914" stop-color="#108dbb" offset=".03125"/>
      <stop id="stop3916" stop-color="#108dbb" offset=".0625"/>
      <stop id="stop3918" stop-color="#108dbb" offset=".125"/>
      <stop id="stop3920" stop-color="#108dbb" offset=".25"/>
      <stop id="stop3922" stop-color="#108dbb" offset=".5"/>
      <stop id="stop3924" stop-color="#108dbb" offset=".75"/>
      <stop id="stop3926" stop-color="#108dbb" offset="1"/>
    </linearGradient>
  </defs>
  <g id="layer1" transform="translate(659.37 186.3)">
    <flowRoot id="flowRoot3006" style="word-spacing:0px;letter-spacing:0px" xml:space="preserve" font-size="40px" line-height="125%" font-family="Comic Sans MS" fill="#fff">
      <flowRegion id="flowRegion3008">
        <rect id="rect3010" y="680.93" width="871.43" height="105.71" x="560"/>
      </flowRegion>
      <flowPara id="flowPara3012"/>
    </flowRoot>
    <g id="g4110">
      <path id="path3854" d="m1017.1 532.89c0 266.67-216.18 482.86-482.86 482.86-266.67 0-482.86-216.18-482.86-482.86 0-266.67 216.18-482.86 482.86-482.86 266.67 0 482.86 216.18 482.86 482.86z" transform="matrix(.98523 0 0 .98523 -708.54 -234.08)" stroke="#fff" stroke-width="3.045" fill="#25a2d1"/>
      <path id="path3854-8" d="m1017.1 532.89c0 266.67-216.18 482.86-482.86 482.86-266.67 0-482.86-216.18-482.86-482.86 0-266.67 216.18-482.86 482.86-482.86 266.67 0 482.86 216.18 482.86 482.86z" transform="matrix(.90845 0 0 .90550 -667.51 -193.02)" stroke="#fff" stroke-width="1.7717" fill="#fff"/>
      <g id="text2998" stroke="#000" stroke-width="2" fill="none" transform="matrix(1.0893 0 -.19541 .91798 -.000014286 -11.429)">
        <path id="path4194" d="m-88.404-46.314v10.49h-4.5192c-0.72575-2.0892-1.3415-3.5021-1.8473-4.2389-0.50583-0.73668-1.1106-1.3194-1.8143-1.7483-0.70376-0.42879-1.9023-0.64321-3.5956-0.64325h-7.1912v15.834h4.3543c0.96761 0.000026 1.7263-0.13742 2.2761-0.41234 0.54976-0.27487 1.0061-0.73119 1.369-1.369 0.36283-0.63772 0.7092-1.6273 1.0391-2.9688h3.7276v13.393h-3.7276c-0.30791-1.2755-0.64877-2.2486-1.0226-2.9194-0.37388-0.67072-0.8192-1.149-1.336-1.4349-0.51682-0.28587-1.292-0.42881-2.3256-0.42883h-4.3543v17.615h7.1582c0.76967 0.0000039 1.4184-0.049477 1.9462-0.14844 0.52777-0.098958 1.0006-0.26939 1.4184-0.5113 0.41781-0.2419 0.81915-0.57177 1.204-0.98962 0.38482-0.41783 0.72569-0.86866 1.0226-1.3525 0.29686-0.48381 0.61023-1.1216 0.94014-1.9133 0.32984-0.79168 0.6927-1.8803 1.0886-3.2657h4.5192l-0.62676 12.04h-32.426v-2.1772c0.81368-0.21991 1.4569-0.45632 1.9298-0.70923 0.47281-0.2529 0.82467-0.60476 1.0556-1.0556 0.2309-0.45082 0.37934-1.0226 0.44533-1.7153 0.066-0.69273 0.099-1.5669 0.099-2.6225v-28.435c-0.00001-1.0336-0.0275-1.9022-0.0825-2.606-0.055-0.70369-0.19793-1.2755-0.42883-1.7153-0.23092-0.43979-0.58278-0.79715-1.0556-1.0721-0.47282-0.27485-1.1271-0.52226-1.9627-0.74221v-2.1772z"/>
        <path id="path4196" d="m-53.009-38.035c-0.000033-1.6493-0.07151-2.7984-0.21442-3.4472-0.14298-0.64871-0.42337-1.171-0.84117-1.5669-0.41787-0.3958-1.2316-0.75866-2.4411-1.0886v-2.1772h14.514v2.1772c-0.79174 0.21996-1.4185 0.45637-1.8803 0.70922-0.46186 0.25294-0.81372 0.60481-1.0556 1.0556-0.24195 0.45087-0.39589 1.0226-0.46182 1.7153-0.06601 0.69277-0.099 1.5669-0.09896 2.6225v20.617c-0.00004 2.727-0.21996 5.0086-0.65974 6.8448-0.43987 1.8363-1.1216 3.3812-2.0452 4.6347-0.92368 1.2535-2.0727 2.2651-3.4472 3.0348s-2.9194 1.3195-4.6347 1.6494c-1.7154 0.32987-3.6396 0.49481-5.7728 0.49481-3.1228-5.3e-7 -5.7618-0.32437-7.9169-0.97312-2.1552-0.64875-3.909-1.6274-5.2615-2.9359s-2.3531-2.8974-3.0018-4.7667c-0.64876-1.8693-0.97313-4.2773-0.97312-7.2242v-21.343c-0.000006-1.0336-0.0275-1.9022-0.08247-2.606-0.05499-0.70369-0.19793-1.2755-0.42883-1.7153-0.23092-0.43979-0.58278-0.79715-1.0556-1.0721-0.47282-0.27485-1.1271-0.52226-1.9627-0.74221v-2.1772h17.318v2.1772c-0.90167 0.24195-1.5669 0.50035-1.9957 0.7752-0.42885 0.27494-0.75322 0.6103-0.97312 1.0061-0.21993 0.39589-0.37387 0.91269-0.46182 1.5504-0.08798 0.63779-0.13196 1.5724-0.13195 2.8039v21.772c-0.000016 1.7373 0.10994 3.3207 0.32987 4.7502 0.2199 1.4295 0.62124 2.6555 1.204 3.6781s1.3909 1.8088 2.4246 2.3586c1.0336 0.54979 2.3641 0.82468 3.9915 0.82468 2.2431 0.0000033 3.9145-0.45082 5.0141-1.3525 1.0995-0.90164 1.8747-2.1607 2.3256-3.777 0.45079-1.6164 0.6762-4.0299 0.67624-7.2407z"/>
        <path id="path4198" d="m-19.098-1.2869h-17.318v-2.1772c0.81368-0.21991 1.4569-0.45632 1.9298-0.70923 0.47281-0.2529 0.82468-0.60476 1.0556-1.0556 0.2309-0.45082 0.37935-1.0226 0.44533-1.7153 0.06597-0.69273 0.09895-1.5669 0.09896-2.6225v-28.435c-0.000007-1.0336-0.0275-1.9022-0.08247-2.606-0.05499-0.70369-0.19793-1.2755-0.42883-1.7153-0.23092-0.43979-0.58278-0.79715-1.0556-1.0721-0.47282-0.27485-1.1271-0.52226-1.9627-0.74221v-2.1772h19.232c2.595 0.000045 4.7996 0.18148 6.6139 0.54429 1.8143 0.3629 3.4031 0.91819 4.7667 1.6659 1.1435 0.6158 2.1111 1.391 2.9029 2.3256 0.79166 0.93468 1.4019 2.0233 1.8308 3.2657 0.42879 1.2426 0.64321 2.6885 0.64325 4.3378-0.00003916 2.1552-0.37939 4.0025-1.1381 5.5419-0.75874 1.5394-1.7813 2.8204-3.0678 3.843s-3.0074 1.9848-5.1625 2.8864v0.32987c1.6273 0.70375 2.9743 1.6439 4.0409 2.8204 1.0666 1.1766 2.0287 2.6665 2.8864 4.4698l2.0782 4.4863c0.9236 2.0012 1.8417 3.5021 2.7544 4.5028 0.9126 1.0006 1.9957 1.6109 3.2492 1.8308v2.1772h-12.7c-1.2755-1.7593-2.716-4.3763-4.3213-7.851l-2.573-5.6408c-0.76973-1.6713-1.4295-2.8589-1.9792-3.5626-0.54981-0.70371-1.1161-1.1875-1.6988-1.4514-0.5828-0.26388-1.4789-0.39583-2.6885-0.39585h-1.9133v10.622c-0.000017 1.6494 0.07695 2.8039 0.23091 3.4637 0.15392 0.65975 0.45081 1.1875 0.89066 1.5834 0.43981 0.39585 1.2535 0.74771 2.4411 1.0556zm-3.5626-41.102v18.341h3.2657c1.7593 0.000023 3.2107-0.23639 4.3543-0.70922 1.1435-0.47279 2.0507-1.1325 2.7214-1.9792 0.67071-0.84664 1.1325-1.8418 1.3855-2.9853 0.25287-1.1435 0.37932-2.397 0.37935-3.7605-0.000029-2.9908-0.70376-5.2339-2.1112-6.7294-1.4075-1.4954-3.4967-2.2431-6.2676-2.2431-1.8913 0.000041-3.1338 0.02203-3.7276 0.06597z"/>
        <path id="path4200" d="m28.074-0.75913c-6.466 0-11.32-1.8913-14.564-5.6738-3.244-3.7821-4.8657-9.4451-4.8657-16.988-0.0000035-4.9481 0.78619-9.1759 2.3586-12.684 1.5724-3.5076 3.887-6.1741 6.9438-7.9994 3.0568-1.8252 6.6964-2.7379 10.919-2.7379 6.5754 0.000046 11.513 1.8858 14.811 5.6573 3.2987 3.7716 4.948 9.3739 4.9481 16.807-0.000044 4.1564-0.48935 7.7245-1.4679 10.704-0.97866 2.9799-2.3696 5.4264-4.1729 7.3397s-3.964 3.3207-6.482 4.2224c-2.5181 0.90165-5.3275 1.3525-8.4282 1.3525zm-8.94-23.553c-0.000014 6.6414 0.79718 11.584 2.3916 14.828 1.5944 3.2437 4.0299 4.8656 7.3067 4.8656 1.6933 0.0000033 3.1338-0.45632 4.3213-1.369 1.1875-0.91264 2.1496-2.1881 2.8864-3.8265 0.73668-1.6384 1.2645-3.5791 1.5834-5.8222 0.31884-2.2431 0.47828-4.7062 0.47831-7.3891-0.000033-4.3763-0.3464-8.0434-1.0391-11.001-0.69276-2.9578-1.7374-5.1899-3.1338-6.6964-1.3965-1.5064-3.1833-2.2596-5.3604-2.2596-3.1888 0.000041-5.5584 1.5229-7.1087 4.5687-1.5504 3.0459-2.3256 7.7465-2.3256 14.102z"/>
      </g>
      <g id="text3023" stroke="#000" stroke-width="2" fill="none" transform="matrix(1.0497 0 -.15038 .95261 -.000014286 -11.429)">
        <path id="path4191" stroke="#000" stroke-width="2" fill="none" d="m-73.273 13.859v18.184h-7.8338c-1.258-3.6214-2.3254-6.0707-3.2021-7.3478-0.87683-1.277-1.9252-2.2872-3.145-3.0306-1.2199-0.74328-3.2975-1.115-6.2328-1.115h-12.466v27.447h7.5479c1.6773 0.000044 2.9924-0.23821 3.9455-0.71476 0.95298-0.47646 1.744-1.2675 2.373-2.373 0.62895-1.1055 1.2294-2.8209 1.8012-5.1463h6.4615v23.216h-6.4615c-0.53374-2.211-1.1246-3.8978-1.7726-5.0605-0.6481-1.1626-1.42-1.9918-2.3158-2.4874-0.89588-0.49553-2.2396-0.74332-4.0313-0.74336h-7.5479v30.535h12.408c1.3342 0.000007 2.4587-0.08576 3.3737-0.25732 0.91485-0.17154 1.7344-0.46697 2.4588-0.88631 0.72425-0.41932 1.42-0.99113 2.0871-1.7154 0.66706-0.72428 1.2579-1.5058 1.7726-2.3444 0.51458-0.83864 1.0578-1.9441 1.6297-3.3165 0.57176-1.3723 1.2008-3.2593 1.887-5.6609h7.8338l-1.0864 20.871h-56.209v-3.774c1.4105-0.3812 2.5255-0.791 3.3451-1.2294 0.81959-0.43838 1.4295-1.0483 1.8298-1.8298 0.40025-0.78147 0.65757-1.7726 0.77194-2.9734 0.11435-1.2008 0.17154-2.7161 0.17155-4.5459v-49.29c-0.00001-1.7916-0.0477-3.2974-0.14296-4.5173-0.0953-1.2198-0.34309-2.2109-0.74335-2.9734-0.40028-0.76234-1.0102-1.3818-1.8298-1.8584-0.81961-0.47644-1.9537-0.9053-3.4023-1.2866v-3.774z"/>
      </g>
      <g id="text3039" stroke="#000" stroke-width="2" fill="none" transform="matrix(1.0562 0 -.15231 .94680 -.000014286 -11.429)">
        <path id="path4188" stroke="#000" stroke-width="2" fill="none" d="m7.4529 13.944v3.7971c-1.5343 0.49869-4.1836 0.37681-5.9895 1.2657-0.63103 0.3106-1.1699 0.80553-1.6109 1.3808-0.44115 0.5754-0.77676 1.448-1.0068 2.6177-0.2302 1.1699-0.34526 2.963-0.3452 5.3793v64.091h-14.613l-25.89-44.76c-3.4903-6.06-6.0601-10.816-7.7094-14.268h-0.51779c0.38353 8.2464 0.5753 16.953 0.57532 26.12v18.525c-0.000021 2.8766 0.14381 4.8903 0.43149 6.0409 0.28764 1.1507 0.80543 2.0616 1.5534 2.7328 0.7479 0.67122 2.1574 1.2753 4.2286 1.8123v3.7971h-21.747v-3.7971c1.4191-0.38355 2.541-0.80545 3.3657-1.2657 0.82462-0.46026 1.4383-1.0835 1.841-1.8698 0.40272-0.78627 0.66161-1.7739 0.77669-2.9629 0.11505-1.189 0.17259-2.6848 0.1726-4.4875v-49.766c-0.000011-2.8766-0.12466-4.8614-0.37396-5.9546-0.24932-1.093-0.76711-2.004-1.5534-2.7328-0.78629-0.72867-7.2849-1.3615-9.3177-1.8986l-0.59175-3.7971h28.981l20.367 35.383c1.2657 2.2246 2.9149 5.2355 4.9478 9.0326 2.0328 3.7972 3.8354 7.3834 5.4081 10.759h0.92052c-0.42196-9.1668-0.63292-19.177-0.63286-30.032v-10.701c-0.00006-2.493-0.09595-4.2957-0.28766-5.4081-0.19183-1.1122-0.48909-1.956-0.89175-2.5314-0.40279-0.57525-0.9906-1.1439-1.6109-1.4383-3.25-1.5426-8.5306-0.80538-10.103-1.2657l-0.46494-3.7971z"/>
      </g>
      <g id="text3043-0" stroke="#000" stroke-width="2" fill="none" transform="matrix(1.1466 0 -.20567 .87218 -3.1881 -11.576)">
        <path id="path4182-2" stroke="#000" stroke-width="2" fill="none" d="m-123.14-24.96-2.7789 43.219h-6.3338c-1.5148-7.1317-7.6756-28.151-10.957-31.528-3.282-3.3764-7.5737-5.0647-12.875-5.0648-9.972 0.00012-21.551 4.8586-28.306 13.933-6.3367 8.5121-9.3599 21.659-9.0639 34.774 0.37521 16.623 4.0645 36.305 13.625 50.565 3.4093 5.0854 8.7827 7.879 13.513 9.3708 7.4951 2.3639 15.242 1.7181 21.639-1.2709 4.4188-2.0648 7.8748-6.3534 10.585-11.053 3.1373-5.4412 4.9361-13.59 6.1984-19.207l6.9249 4.5043-2.1688 34.827c-6.9426 1.6409-13.285 2.8401-19.029 3.5975-5.7434 0.75736-16.024 2.6554-24.407 0.41944-6.9241-1.8468-14.139-5.5304-20.357-11.153-6.7194-6.0748-12.852-14.263-17.023-23.225-6.009-12.914-9.6896-27.652-10.225-41.22-0.34917-8.8538 1.4788-17.386 4.6541-24.272 4.7076-10.21 12.102-18.184 20.496-23.431 9.4884-5.9313 19.818-8.2361 32.377-8.2363 6.3744 0.000131 12.149 0.34725 17.325 1.0414 5.1752 0.69438 10.571 1.8304 16.189 3.4081z"/>
      </g>
      <g id="text3051" stroke="#000" stroke-width="2" fill="none" transform="matrix(1.0023 0 -.17980 .99768 -.000014286 -11.429)">
        <path id="path4185" stroke="#000" stroke-width="2" fill="none" d="m27.481 87.76v-3.6035c1.5287-0.25479 2.739-0.59148 3.6308-1.0101 0.89175-0.41858 1.556-1.0101 1.9928-1.7744 0.43676-0.76437 0.70975-1.738 0.81898-2.921 0.10917-1.183 0.16377-2.648 0.1638-4.3952v-54.435h-4.4225c-2.184 0.000068-3.8583 0.25486-5.0231 0.76438-1.1648 0.50965-2.1749 1.3104-3.0302 2.4023-0.85539 1.092-1.5925 2.5571-2.2112 4.3952-0.61879 1.8382-1.1284 3.5763-1.5288 5.2141h-7.48v-19.164h64.262v19.164h-7.48c-0.69-2.474-1.236-4.294-1.636-5.459-0.401-1.164-0.847-2.156-1.338-2.975-0.492-0.819-1.01-1.502-1.556-2.048s-1.129-0.982-1.747-1.31c-0.619-0.328-1.393-0.573-2.321-0.737s-2.138-0.246-3.631-0.246h-3.9311v54.435c-0.000044 1.9292 0.05456 3.3942 0.1638 4.3952 0.10915 1.001 0.30935 1.8109 0.60058 2.4296 0.29115 0.61879 0.64604 1.1193 1.0647 1.5015 0.41854 0.38219 1.0009 0.72798 1.7472 1.0374 0.74613 0.3094 1.7562 0.55509 3.0302 0.73708v3.6035z"/>
      </g>
      <path id="path3064" style="block-progression:tb;color:#fff;text-transform:none;text-indent:0" d="m80.594 61.103c-0.93492 0.01609-1.8746 0.3841-2.625 1.0938l-181.44 171.59c-0.25028 0.23669-0.37221 0.49548-0.53125 0.75-67.143 30.595-113.81 98.215-113.81 176.75 0 100.61 76.591 183.36 174.69 193.22 6.4737 0.65082 13.042 1 19.688 1 4.6415 0 9.2523-0.18016 13.812-0.5 1.4329-0.1005 2.8571-0.21237 4.2812-0.34375 98.86-9.1199 176.28-92.222 176.28-193.38 0-34.012-8.7792-65.98-24.156-93.781l38.219-36.156c1.4894-1.4086 1.709-3.7535 0.3125-5.2188l-1.75-1.8125c-1.3938-1.4624-3.7547-1.3828-5.25 0.0312l-36.562 34.594c-6.8736-11.051-14.834-21.329-23.719-30.75l55.188-52.188c1.4894-1.4086 1.709-3.7535 0.3125-5.2188l-1.75-1.8438c-1.3938-1.4624-3.7547-1.3828-5.25 0.0312l-55.312 52.312c-9.313-8.9434-19.52-16.945-30.469-23.906l72.469-68.531c1.4894-1.4086 1.709-3.7535 0.3125-5.2188l-1.75-1.8125c-1.3938-1.4624-3.7547-1.3828-5.25 0.0312l-74.375 70.344c-11.398-6.4445-23.537-11.75-36.219-15.812l94.063-88.969c1.4824-1.4019 1.7021-3.7295 0.3125-5.1875l-1.75-1.8438c-1.3938-1.4624-3.7547-1.3828-5.25 0.0312l-98.125 92.844c-10.355-2.6654-21.028-4.4314-31.969-5.3438-1.8484-0.15415-3.6993-0.30299-5.5625-0.40625-1.5338-0.085-3.0816-0.16838-4.625-0.21875l124.47-117.7c1.4894-1.4086 1.709-3.7535 0.3125-5.2188l-1.75-1.8125c-1.3938-1.4624-3.7547-1.3828-5.25 0.0312l-131.84 124.69c-10.81 0.41334-21.379 1.7445-31.656 3.875-1.0609 0.21992-2.1329 0.45054-3.1875 0.6875-0.18768 0.0422-0.37502 0.0823-0.5625 0.125-0.71133 0.16037-1.4167 0.33184-2.125 0.5-1.1446 0.27416-2.2694 0.54983-3.4062 0.84375-0.03184 0.008-0.06191 0.0231-0.09375 0.0312-1.182 0.30624-2.3578 0.64149-3.5312 0.96875-1.7966 0.49892-3.5998 0.98234-5.375 1.5312l165.62-156.62c1.489-1.4082 1.6636-3.7372 0.28125-5.1875l-1.7188-1.8438c-0.7062-0.74096-1.6866-1.0786-2.625-1.0625zm0.0625 2c0.44534-0.0077 0.8442 0.14288 1.125 0.4375l1.7188 1.8438c0.59171 0.62083 0.55943 1.6391-0.21875 2.375l-168.62 159.47-0.03125 0.0312c-4.6577 1.5641-9.2576 3.2872-13.75 5.1875l178.46-168.82c0.38322-0.36242 0.86366-0.52353 1.3125-0.53125zm22.813 30.344c0.44036-0.008 0.86615 0.16435 1.1562 0.46875l1.75 1.8125c0.5775 0.60592 0.5278 1.6707-0.25 2.4062l-125.97 119.13c-1.2401-0.0234-2.4731-0.0625-3.7188-0.0625-1.5388 0-3.0636 0.0269-4.5938 0.0625l130.34-123.25c0.38596-0.365 0.84089-0.55423 1.2812-0.5625zm22.5 37.844c0.44036-0.008 0.86615 0.16435 1.1562 0.46875l1.75 1.8438c0.58443 0.6132 0.53485 1.6328-0.25 2.375l-94.969 89.812c-2.097-0.64644-4.217-1.2358-6.3438-1.8125l97.375-92.125c0.38596-0.365 0.84089-0.55423 1.2812-0.5625zm23.219 41.438c0.44036-0.008 0.86615 0.16435 1.1562 0.46875l1.75 1.8125c0.5775 0.60592 0.5278 1.6707-0.25 2.4062l-73 69.031c-1.6772-1.0442-3.3517-2.0686-5.0625-3.0625l74.125-70.094c0.38596-0.365 0.84089-0.55423 1.2812-0.5625zm-172.75 46.25c1.2448 0 2.4796 0.0388 3.7188 0.0625a1.0001 1.0001 0 0 0 0.46875 0.125c14.185 0.29391 27.983 2.1433 41.25 5.3438-3.6091 0.91616-9.3998 2.4622-12.969 3.875-8.3247 3.2954-16.372 7.3985-23.906 12.25-5.3921 3.4723-10.548 7.3583-15.406 11.562-9.9632-11.496-19.754-21.708-20.125-22.094 0.46334-1.369 0.78125-2.5 0.78125-2.5 0.17496-0.64247-0.46772-1.3566-1.125-1.25-0.38556 0.0621-0.71981 0.37063-0.8125 0.75 0 0-0.35546 1.4321-0.96875 3.0938s-1.5418 3.5742-2.3125 4.3125c-0.97338 0.93244-2.6738 1.2875-4.4062 1.6875-2.9006 0.66969-6.0998 0.45554-9.375 0.3125s-6.6523-0.19279-9.8438 1.0938c-2.0224 0.81527-3.4346 2.3648-4.75 3.8125s-2.5354 2.7818-4 3.4688c-0.80685 0.37846-2.0199 0.37782-3.375 0.375-1.3551-0.003-2.9427 0.0201-4.1875 1.125-0.84517 0.75019-1.1824 1.808-1.3438 2.8125-0.16136 1.0045-0.17217 2.0264-0.1875 2.9688-0.01533 0.94235-0.05199 1.7837-0.21875 2.3438-0.16676 0.56002-0.30882 0.78811-0.75 0.9375-4.0289 1.3643-12.473 0.96528-19.719 0.125s-13.406-2.0625-13.406-2.0625c-0.51542-0.0982-1.0581 0.29708-1.1562 0.8125-0.0982 0.51541 0.26583 1.0581 0.78125 1.1562 0 0 6.1946 1.243 13.531 2.0938 5.2823 0.61257 11.083 1.0334 15.75 0.625 0.25935 1.8231 1.9723 13.406 4.4375 19.531 0.02098 0.0521 0.0414 0.10414 0.0625 0.15625-7.2403 4.5649-14.271 9.4824-21 14.75-8.3851 6.5641-15.968 14.092-23.312 21.719-5.5916 5.8066-10.811 11.957-15.781 18.281-5.381 6.8474-10.774 13.811-15.25 21.375-2.743 4.6357-5.224 9.4171-7.5312 14.281-10.902-13.985-21.312-30.031-21.312-30.031-0.0164-0.0437-0.0402-0.084-0.0625-0.125 1.6126-3.9116 3.3291-7.7857 5.1875-11.562 0.22144-0.45002 0.4314-0.89572 0.65625-1.3438 0.28295-0.56438 0.58668-1.1263 0.875-1.6875 19.778-38.446 52.161-69.364 91.688-87.312a1.0001 1.0001 0 0 0 0.375 -0.28125 1.0001 1.0001 0 0 0 0 -0.0312c5.7746-2.6073 11.72-4.9324 17.781-6.9688a1.0001 1.0001 0 0 0 0.4375 -0.0312c16.996-5.6658 35.042-9.007 53.781-9.6875a1.0001 1.0001 0 0 0 0.40625 -0.125c2.198-0.0744 4.4088-0.125 6.625-0.125zm192.75 0.875c0.44036-0.008 0.86615 0.16435 1.1562 0.46875l1.75 1.8438c0.5775 0.60592 0.5278 1.6707-0.25 2.4062l-55.375 52.375c-1.3282-1.3834-2.6629-2.7501-4.0312-4.0938l55.469-52.438c0.38596-0.365 0.84089-0.55423 1.2812-0.5625zm-143.69 5.5a1.0001 1.0001 0 0 0 0.125 0c2.6149 0.68949 5.2114 1.4228 7.7812 2.2188a1.0001 1.0001 0 0 0 0.09375 0.0625c0.06187 0.0739 0.10714 0.1655 0.1875 0.21875 0 0 1.5532 1.1478 3.5938 2.8438 1.0241 2.613 2.8428 7.3987 3.3438 10.219 0.34255 1.9284 0.63932 3.8879 0.875 5.8438-1.0197-0.0365-2.0421-0.0684-3.0625-0.0937-6.9983-0.17387-13.987-0.10534-20.969 0.21875-13.616 0.63201-37.128 4.0961-44.75 5.25 4.2379-3.5446 8.7047-6.8252 13.344-9.8125 7.4172-4.7764 15.384-8.8126 23.594-12.062 5.0071-1.9821 15.938-4.5938 15.938-4.5938l-0.09375-0.31255zm13.75 4.4375c4.8634 1.6574 12.456 4.4251 22.625 9.4062 7.3023 3.5768 15.044 8.3762 21.75 12.938-6.3401-1.2998-17.369-3.4599-24.25-4.1562-3.0953-0.31324-6.2082-0.54267-9.3125-0.75 0.08426-0.25052 0.15676-0.50306 0.1875-0.78125 0.26179-2.3691-0.69863-4.8016-2.125-7.0938-1.4264-2.2921-3.3813-4.4966-5.3438-6.4375-1.2744-1.2604-2.3771-2.1461-3.5312-3.125zm-90.531 2.4062c1.4435 1.514 9.5305 10.055 18.469 20.312-9.151-1.0756-18.222-3.7157-27.625-4.7188-7.0442-0.75141-18.037-1.1542-25.5-1.375 1.6743-0.93932 2.9158-2.3598 4.0938-3.6562 1.3044-1.4356 2.5146-2.7137 4-3.3125 2.7164-1.095 5.7726-1.0785 9-0.9375 3.2274 0.14096 6.6003 0.41953 9.9062-0.34375 1.6763-0.38702 3.7908-0.73117 5.3438-2.2188 0.9955-0.95363 1.7316-2.3493 2.3125-3.75zm91.844 1.375c0.27391 0.26016 0.53829 0.51005 0.8125 0.78125 1.8927 1.8719 3.7651 3.9777 5.0625 6.0625s1.9978 4.1353 1.8125 5.8125c-0.03598 0.32561-0.12657 0.59181-0.28125 0.84375-1.4835-0.0878-2.9522-0.15482-4.4375-0.21875-0.24734-2.1152-0.5695-4.2095-0.9375-6.2812-0.35516-1.9995-1.1946-4.6433-2.0312-7zm-134.38 14.625c0.01042 0.00016 0.02083 0.00016 0.03125 0 0 0 22.218 0.43032 33.125 1.5938 7.9158 0.84438 15.775 2.9242 23.812 4.1875-6.9364 1.3937-17.448 3.6427-24 5.8125-7.2748 2.409-14.332 5.5546-21.062 9.1875-4.565 2.4639-9.051 5.0762-13.469 7.8125-2.187-5.5842-3.9187-16.774-4.2188-18.781 1.0228-0.16334 1.9743-0.40367 2.8125-0.6875 1.0858-0.36767 1.7528-1.3148 2.0312-2.25 0.27848-0.9352 0.2967-1.9039 0.3125-2.875 0.0158-0.97111 0.033-1.9202 0.15625-2.6875 0.09038-0.56267 0.25275-0.99206 0.46875-1.3125zm121.75 0.375c4.5904-0.0486 9.1926 0.0463 13.781 0.21875 0.05746 0.59408 0.11221 1.1867 0.15625 1.7812-0.24747 0.13652-0.48378 0.28307-0.71875 0.4375-1.0177 0.66885-1.94 1.5796-2.3438 2.8438-0.79464 2.488-1.0467 5.4481-0.46875 8.25 0.38628 1.8727 1.1933 3.6843 2.4688 5.1562-0.15496 0.74258-0.32282 1.4786-0.5 2.2188-5.3639-2.9408-10.863-5.6449-16.562-7.875-11.339-4.4362-23.335-7.3338-35.406-8.8125-1.5481-0.18964-3.089-0.24832-4.625-0.25 10.601-1.4674 24.731-3.2347 33.812-3.6562 3.468-0.16098 6.9296-0.27567 10.406-0.3125zm15.812 0.28125c0.53057 0.0238 1.0634 0.067 1.5938 0.0937-0.30695 0.14645-0.61028 0.29168-0.9375 0.4375-0.1933 0.0861-0.39582 0.19384-0.59375 0.28125-0.02269-0.27153-0.03711-0.54131-0.0625-0.8125zm5.0312 0.28125c3.4793 0.21862 6.9434 0.49332 10.406 0.84375 9.4188 0.95315 27.78 4.8984 28.688 5.0938 2.2527 1.6008 4.3384 3.1466 6.1562 4.5312 16.764 12.769 31.328 28.981 43.031 46.406 0.0269 0.04 0.0668 0.0845 0.0937 0.125-0.17348 0.99995-2.0896 11.87-5.5938 25.125-1.4859 5.6206-3.2688 11.597-5.2812 17.344-6.1044-9.5055-12.712-18.721-20.156-27.25-6.8582-7.8576-14.586-14.937-22.437-21.719-7.4068-6.3976-15.086-12.561-23.312-17.938-2.3471-1.534-4.7095-3.0604-7.0938-4.5625-0.47724-1.1696-1.1485-2.2989-1.9375-3.3438-1.9942-2.6409-4.7541-4.8511-7.2812-6.3438-0.4-0.23625-0.76029-0.51713-1.0938-0.8125 0.11605-0.59511 0.24049-1.1877 0.34375-1.7812 0.74693-4.2934 0.86661-8.6766 0.625-13.031 0.41864-0.19625 0.83562-0.39516 1.2812-0.59375 1.0855-0.48375 2.1821-0.99843 3.125-1.7188 0.14953-0.11423 0.2965-0.24602 0.4375-0.375zm-6.7812 3.75c0.16493 3.9209 0.0056 7.8204-0.65625 11.625-0.0035 0.02 0.0035 0.0425 0 0.0625-0.4752-0.87449-0.81937-1.8478-1.0312-2.875-0.49568-2.4031-0.2839-5.0892 0.40625-7.25 0.19261-0.60306 0.63219-1.095 1.2812-1.5625zm-58.406 1.6875c1.5184-0.007 3.0176 0.0372 4.5 0.21875 11.917 1.4598 23.77 4.3184 34.938 8.6875 5.7628 2.2547 11.331 4.9903 16.781 8-1.7078 6.339-4.2985 12.467-8.125 17.594-6.5261 8.7441-15.045 16.379-24.563 22-0.8688-1.8772-1.7205-3.7639-2.625-5.625 0.59191 0.039 1.1809 0.0815 1.8438 0.0937 1.9236 0.0358 3.8845-0.0541 5.5313-0.5625 0.82339-0.25421 1.5742-0.61444 2.1875-1.1562 0.61325-0.54181 1.0686-1.3118 1.1875-2.1875 0.40839-3.0089-0.77644-5.3499-2.6875-6.8438s-4.4344-2.2606-6.9688-2.6875c-3.551-0.59817-6.5499-0.54136-8.25-0.4375-0.2013-0.36442-0.39083-0.72997-0.59375-1.0937 0.015235-0.18054 0.019233-0.31992 0.03125-0.59375 0.071657-1.6328 0.077883-3.562-1.0938-4.9062-1.0473-1.2016-2.3414-2.1216-3.7812-2.8125-2.0681-3.4125-4.2081-6.7886-6.4375-10.094-3.3775-5.0073-8.3543-11.178-13.531-17.25 3.9545 0.0866 7.8602-0.32667 11.656-0.34375zm-14.188 0.46875c5.5193 6.4253 10.888 13.034 14.406 18.25 1.7526 2.5983 3.441 5.2386 5.0938 7.9062-1.7637-0.42405-3.6251-0.5735-5.4375-0.46875-1.5048 0.087-2.9926 0.34358-4.3438 0.75-6.3165 1.9-12.729 8.5686-17.75 14.719-4.5662 5.5927-7.5568 10.287-8.125 11.188-0.56067-0.22808-1.7197-0.72898-3.8125-1.2812-2.5402-0.67033-5.5357-1.2836-7.8125-0.21875-2.5202 1.1786-3.8706 3.6824-4.75 6.1875-0.07228-0.0319-0.1466-0.0616-0.21875-0.0937-3.0068-1.3409-5.8697-3.0353-8.5938-4.9688 3.1777-5.6291 6.5469-11.145 10.25-16.406 8.0124-11.385 17.039-22.139 27.031-31.812 1.3222-1.28 2.689-2.5234 4.0625-3.75zm-3.5 0.4375c-0.66426 0.61795-1.3176 1.2446-1.9688 1.875-10.093 9.7712-19.173 20.648-27.25 32.125-3.703 5.2615-7.0829 10.725-10.25 16.312-3.548-2.7057-6.848-5.7964-9.8125-9.0938-4.7185-5.2483-8.4133-11.519-11.219-18.062 4.4576-2.7759 9.0101-5.4154 13.625-7.9062 6.6403-3.5841 13.601-6.6638 20.75-9.0312 7.0371-2.3303 19.518-4.9143 26.125-6.2188zm76.625 13.312c0.17755 0.12276 0.34175 0.26307 0.53125 0.375 2.2779 1.3454 4.8154 3.4079 6.5938 5.7188-2.4806-1.5175-4.9946-2.98-7.5312-4.4062 0.13855-0.56428 0.28053-1.1222 0.40625-1.6875zm-0.9375 3.6875c3.3936 1.9206 6.7513 3.9535 10.062 6.0312 0.39836 1.2382 0.48532 2.479 0.15625 3.6562-0.49158 1.7587-1.5545 2.8697-3.1562 3.75-1.6017 0.88034-3.7356 1.4656-6.0312 1.9688-3.0151 0.66082-6.3386 1.1888-9.25 2.3438 3.8962-5.2436 6.4785-11.422 8.2188-17.75zm139.38 2.75c0.44036-0.008 0.86615 0.16435 1.1562 0.46875l1.75 1.8125c0.5775 0.60592 0.5278 1.6707-0.25 2.4062l-38.094 36.031c-0.95833-1.695-1.9614-3.3684-2.9688-5.0312l37.125-35.125c0.38596-0.365 0.84089-0.55423 1.2812-0.5625zm-277.31 4.5c2.8677 6.6042 6.6779 12.949 11.5 18.312 3.0942 3.4417 6.5369 6.6954 10.281 9.5312-2.9582 5.3098-5.7368 10.72-8.4688 16.125-0.37708 0.74596-0.7498 1.5011-1.125 2.25-1.0238 0.42031-2.0111 0.97883-2.9062 1.6562-2.0246 1.5322-3.6527 3.6134-4.3125 5.9375-0.32606 1.1485-0.12492 2.2994 0.28125 3.2812 0.26111 0.63122 0.60232 1.2131 0.96875 1.7812-1.4207 3.2957-2.7459 6.6499-3.875 10.062-1.3234 4-2.5969 8.0218-3.8125 12.062-1.2976 0.14217-2.5563 0.48186-3.7812 1.125-2.859 1.501-4.1767 4.4487-5.3438 7.2188-1.167 2.7701-2.2313 5.4243-4.1562 6.9062-3.0778 2.3694-8.1485 2.565-13.062 3.0312-2.457 0.23314-4.8858 0.56466-7 1.375s-3.9632 2.1714-5 4.4062c-1.0251 2.2096-1.1273 4.1906-0.625 5.875 0.50226 1.6844 1.5442 3.0414 2.6875 4.25 2.2867 2.4172 4.8481 4.3704 5.3125 6.7812 0.4396 2.282-0.13215 4.8591-0.375 7.5625-0.0618 0.68764-0.3087 1.4741-0.59375 2.3125-13.441-7.7199-25.837-17.515-37.062-28.156-3.603-3.4155-7.7341-8.2219-11.844-13.406 2.4036-5.1258 5.0307-10.14 7.9062-15 4.3899-7.4191 9.7177-14.284 15.094-21.125 4.9394-6.2855 10.124-12.411 15.656-18.156 7.3215-7.6029 14.862-15.031 23.125-21.5 6.5935-5.1616 13.448-10.009 20.531-14.5zm150.34 0.25c1.7719 1.1295 3.5253 2.2586 5.2812 3.4062 8.1178 5.3057 15.724 11.416 23.094 17.781 7.8218 6.756 15.458 13.754 22.219 21.5 7.695 8.816 14.55 18.411 20.844 28.312-2.7711 7.5506-5.9584 14.524-9.4688 19.375-17.466 24.135-44.41 41.81-72.063 53.219-1.6884 0.69665-3.4073 1.3447-5.125 1.9688-1.5437-11.927-3.5441-23.783-6.0312-35.531-4.4554-21.046-10.202-41.949-18.25-61.938-1.8703-4.6449-3.8432-9.2643-5.9063-13.844 0.93423-0.0441 1.9201-0.0292 2.9375 0 2.5776 0.074 5.3717 0.17031 7.7188-1.4062 3.3116-2.2244 4.8218-5.8904 6.2188-9.4375s2.6946-7.0119 5.125-9.2188c2.7865-2.5302 7.766-3.313 12.469-4.3438 2.3514-0.51536 4.6434-1.1015 6.5625-2.1562 1.9191-1.0548 3.4789-2.6572 4.125-4.9688 0.25353-0.90706 0.32503-1.8212 0.25-2.7188zm-70.469 2.7812c2.4069-0.11438 4.902 0.26941 7.0312 1.1562 1.413 2.3458 2.8149 4.7028 4.1562 7.0938-0.096177 0.91756-0.25 1.5938-0.25 1.5938-0.12133 0.6144 0.47147 1.258 1.0938 1.1875 0 0 0.31722-0.0371 0.65625-0.0625 1.687 3.0872 3.2984 6.1952 4.875 9.3438-1.0119-0.14618-1.9062-0.28125-1.9062-0.28125-0.48188-0.0983-1.0124 0.21719-1.1563 0.6875 0 0-2.045 6.3668-5.4688 13.062-0.19819 0.38758-0.41726 0.76867-0.625 1.1562-0.48108 0.92106-0.7929 1.4908-1.2812 2.3125-3.2145 5.4362-7.2651 10.307-11.344 11.344-1.6108 0.40928-4.6346-0.94085-7.0938-2.625s-4.375-3.5312-4.375-3.5312c-0.60257-0.60308-1.8574 0.0708-1.6875 0.90625 0 0 0.41701 2.2857 0.46875 4.9062 0.05174 2.6206-0.42952 5.5112-1.4375 6.5312-0.44955 0.45492-1.0041 0.64595-1.8125 0.6875-0.80837 0.0415-1.8155-0.11608-2.875-0.28125s-2.1664-0.34191-3.2812-0.3125c-1.1149 0.0294-2.2885 0.30401-3.2188 1.125-1.533 1.353-2.6558 3.3249-3.2188 5.4375s-0.55428 4.4059 0.5 6.2812c0.72112 1.2827 1.9583 1.9386 3.25 2.25 1.2917 0.31136 2.6929 0.3442 4.0312 0.375s2.6155 0.0838 3.625 0.3125c1.0095 0.22873 1.7014 0.59526 2.125 1.2812 1.3321 2.1572 1.5458 4.9988 0.96875 7.9062-0.57708 2.9075-1.967 5.8241-3.5938 8-0.77894 1.0419-2.1011 1.5558-3.75 2.0312s-3.5488 0.87987-5.125 2.0625c-3.0037 2.2536-4.5994 5.5971-6.9062 7.7812-5.8374 5.5269-13.791 9.1001-19.5 15.469-1.4842 1.6556-2.1933 3.7634-2.9688 5.5938-0.77545 1.8304-1.5634 3.3072-2.9375 4.0312-0.90519 0.47697-2.3743 0.0854-4.0938-0.4375-0.85974-0.26148-1.749-0.52132-2.6875-0.59375-0.93848-0.0724-1.9842 0.0944-2.8438 0.75-1.0615 0.80965-1.5549 1.9757-1.75 3.1562-0.19512 1.1806-0.14486 2.4148-0.09375 3.5938s0.10019 2.3009-0.03125 3.2188c-0.13144 0.91783-0.39156 1.5918-0.9375 2.0625-1.224 1.0553-3.0395 0.95964-5.2812 0.65625-2.2418-0.30339-4.7785-0.85242-6.8125 0.15625-1.4674 0.72769-2.2818 2.5029-3.0625 3.8438-0.27788 0.36401-0.68516 0.79316-0.9375 1-0.36825 0.30185-1.0552 0.52193-1.625 0.53125-0.70454 0.0115-1.4285-0.22874-2.0312-0.59375-0.63107-0.38218-1.0494-1.073-1.5312-1.5938-0.69519-0.75122-1.4163-1.6224-2.25-2.375-1.411-1.109-2.2819-1.4031-3.5625-1.6875-1.7105-0.37984-3.8096-0.0892-5.25 0.0312-1.0234 0.0857-1.9557 0.11075-2.6875-0.0312-0.73179-0.14225-1.238-0.39147-1.6562-0.9375-0.34429-0.44942-0.47179-0.89436-0.46875-1.5 0.003-0.60564 0.21932-1.4492 0.40625-2.1562 0.18859-0.71339 0.50682-1.387 0.71875-2.0938 0.31202-1.0406 0.71381-2.0576 0.8125-3.1562 0.22465-2.5008 0.89255-5.2449 0.34375-8.0938-0.66495-3.4518-3.7104-5.5592-5.8125-7.7812-1.051-1.111-1.8867-2.2191-2.25-3.4375-0.36331-1.2184-0.30473-2.5994 0.5625-4.4688 0.7977-1.7194 2.0842-2.7199 3.875-3.4062 1.7908-0.68636 4.0607-0.99025 6.4688-1.2188 4.8161-0.457 10.263-0.51986 14.094-3.4688 2.5243-1.9433 3.6315-4.9897 4.7812-7.7188 1.1497-2.729 2.2938-5.0784 4.4062-6.1875 0.70293-0.36905 1.4558-0.58456 2.2187-0.75 0.70603-0.1531 1.434-0.23511 2.1562-0.21875 2.2843 0.0518 4.3955 0.46211 6.7812 1 4.1572 0.93732 8.5575 2.0709 12.625 0.375 9.7008-4.0447 17.082-13.171 21.625-22.438 1.2108-2.4698 1.6972-6.1528 1.9688-9.2812 0.27152-3.1285 0.28125-5.6875 0.28125-5.6875 0.02206-0.45876-0.304-0.92157-0.75-1.0312-0.446-0.10967-0.96304 0.14583-1.1562 0.5625 0 0-0.95724 1.8152-2.3438 3.6875-1.3865 1.8723-3.2762 3.6675-4.5 3.875-0.75772 0.1285-1.8138-0.0627-2.6875-0.5-0.87366-0.43734-1.5221-1.0987-1.75-1.75-0.20779-0.59371-0.17478-1.1358 0.0625-1.7812 0.23728-0.64547 0.702-1.3609 1.25-2.125 1.096-1.5282 2.574-3.167 3-5.2812 0.27542-1.367 0.06896-2.6804-0.09375-3.8438s-0.26588-2.1922-0.03125-3.0625c0.05173-0.19188 0.101-0.39958 0.15625-0.59375l0.625-1.9062c0.81744-2.273 1.9608-4.3653 3.7188-5.1875 1.2712-0.5945 4.0875-0.28464 6.4688 0.34375 2.3812 0.62839 4.3438 1.4688 4.3438 1.4688 0.43258 0.17063 0.97506-0.0102 1.2188-0.40625 0 0 3.4766-5.6184 8.4062-11.656 4.9296-6.0378 11.415-12.439 16.812-14.062 1.1824-0.35568 2.4735-0.56137 3.8125-0.625zm14.906 10.875c1.8611-0.0397 4.3452 0.0219 6.8125 0.4375 2.3531 0.39638 4.6151 1.1254 6.0938 2.2812 1.4787 1.1559 2.2647 2.5895 1.9375 5-0.05427 0.39986-0.21428 0.68871-0.53125 0.96875s-0.82731 0.52072-1.4688 0.71875c-1.2829 0.39607-3.0968 0.53371-4.9063 0.5-1.0163-0.0189-2.0071-0.10028-2.9375-0.1875-1.6176-3.2664-3.2644-6.5146-5-9.7188zm26.156 6.5625c-0.33023 0.81799-0.65191 1.633-0.96875 2.4375-1.3823 3.5099-2.8075 6.7227-5.5 8.5312-1.6853 1.1321-3.9716 1.136-6.5312 1.0625-0.78975-0.0227-1.6173-0.07-2.4375-0.0625 5.5656-3.3856 10.77-7.4172 15.438-11.969zm-24.938 4.6562c0.36804 0.0679 1.271 0.25155 2.5312 0.40625 1.1044 2.2495 2.1669 4.538 3.2188 6.8125-2.6901 1.5002-5.4656 2.8441-8.2812 4-0.83607 0.34322-1.698 0.63587-2.5625 0.90625 3.0272-6.0088 4.7493-11.088 5.0938-12.125zm139.06 3.75c6.7993 10.924 17.982 32.985 22.5 49.625 5.3446 19.684 7.5702 39.59 7.4062 55.406-0.00033 0.026 0.00092 0.0168 0 0.0312-0.0133 0.003-0.012-0.002-0.0312 0-0.25913 0.0308-0.94929-0.083-1.75-0.28125s-1.7331-0.45887-2.6562-0.625c-0.92313-0.16613-1.8648-0.26337-2.7812 0.0625-1.3333 0.47411-2.3008 1.3666-3.1562 2.2188-0.85543 0.85217-1.6162 1.6828-2.4375 2.1562-0.33688 0.19422-1.059 0.32208-1.875 0.4375-1.2847-7.2097-3.211-14.311-5.3125-21.281-2.19-7.264-4.7725-14.445-7.9062-21.375-3.7829-8.3651-8.1681-16.485-13.062-24.25 2.2419-6.2577 4.1885-12.826 5.8125-18.969 2.6951-10.194 4.4697-19.045 5.25-23.156zm-211.63 0.15625c2.7624 1.9488 5.6739 3.6907 8.75 5.0625 0.14488 0.0646 0.29217 0.12406 0.4375 0.1875-0.0847 0.29941-0.17297 0.58927-0.25 0.875-0.36807 1.3652-0.19667 2.661-0.03125 3.8438s0.30688 2.2535 0.125 3.1562c-0.27375 1.3587-1.488 2.9023-2.6562 4.5312-0.58411 0.81446-1.1514 1.6454-1.5 2.5938-0.34863 0.94837-0.47112 2.0468-0.09375 3.125 0.46237 1.3211 1.5646 2.266 2.7812 2.875 1.2166 0.60901 2.6037 0.90841 3.9062 0.6875 2.4166-0.40983 4.2898-2.6423 5.7812-4.6562 0.26058-0.35188 0.20901-0.35091 0.4375-0.6875-0.03879 0.80918-0.0075 0.81837-0.09375 1.8125-0.2633 3.0337-0.8382 6.6077-1.7812 8.5312-4.3941 8.963-11.525 17.732-20.562 21.5-3.2758 1.3658-7.2591 0.47333-11.438-0.46875-2.1711-0.48951-4.401-0.98119-6.5938-1.0625 1.153-3.809 2.3451-7.6011 3.5938-11.375 0.97286-2.9404 2.1068-5.8208 3.3125-8.6875 0.84653 1.2756 1.4794 2.434 1.4062 3.5-0.11002 1.6036-1.4238 3.1535-2.9375 4.8438s-3.2486 3.5965-3.125 6.1562c0.05815 1.2045 0.49252 2.4519 1.1875 3.5312 0.69498 1.0794 1.6794 2.0147 3 2.3125 2.5207 0.56848 4.6517-0.82029 6.4688-2.3438 1.817-1.5235 3.5359-3.2559 5.1875-4.0312 0.60626-0.28462 1.6921-0.39498 2.8125-0.59375 0.5602-0.0994 1.1313-0.25066 1.6875-0.53125 0.55619-0.28059 1.0981-0.7482 1.4062-1.4062 0.52703-1.1255 0.51258-2.3109 0.21875-3.375s-0.85872-2.0179-1.4375-2.9688c-1.1576-1.9017-2.4234-3.7496-2.625-5.3125-0.19121-1.4826 0.31671-3.2308 0.78125-5.0938s0.88759-3.9101 0.03125-5.9062c-0.89658-2.0899-2.8714-4.2081-5.4375-4.25-0.47028-0.008-0.9371 0.0285-1.4062 0.0937 0.10477-0.20771 0.20756-0.41741 0.3125-0.625 2.6926-5.3267 5.4482-10.628 8.3438-15.844zm79.437 5.7188c2.1486 4.7433 4.1846 9.5248 6.125 14.344 7.9914 19.847 13.718 40.627 18.156 61.594 2.5061 11.838 4.492 23.791 6.0312 35.812-13.86 4.7934-28.581 7.3501-43.438 8.4688-1.2721-3.0827-2.132-6.9073-2.0938-10.5 0.038753-3.6424 1.0105-7.0031 3.2188-9.25 1.2732-1.2955 2.9959-1.7005 5.1875-1.625s4.7436 0.6963 7.3125 1.2812c2.5689 0.58495 5.1562 1.1385 7.5313 1.0938s4.6629-0.81439 6.0938-2.9062c0.56887-0.83166 0.61996-1.823 0.40625-2.6875-0.21371-0.86446-0.6443-1.6537-1.125-2.4375-0.9614-1.5676-2.1454-3.1377-2.5-4.3125-0.34218-1.1336-0.11558-2.9573-0.125-4.75-0.0047-0.89633-0.07982-1.7916-0.40625-2.6562-0.32643-0.86463-0.96772-1.6823-1.9375-2.1562-0.95049-0.46456-1.9889-0.44874-2.875-0.1875-0.88612 0.26124-1.6751 0.721-2.4375 1.2188-1.5249 0.99549-2.9841 2.075-4.1562 2.2812-1.8035 0.31733-3.9506-0.18293-6.1875-0.59375s-4.6254-0.73187-6.8438 0.4375c-2.5656 1.3524-4.5115 4.5305-6 7.3438-1.2678 2.3962-1.8327 3.9364-2.0625 4.5312l-7.4375-1.5938c-0.72837-0.16634-1.4472 0.73216-1.125 1.4062 0 0 2.373 5.0544 4.4375 10.406 1.0322 2.6759 1.9799 5.4259 2.5312 7.5938 0.27565 1.0839 0.46266 2.0485 0.5 2.7188 0.028 0.50269-0.08073 0.7998-0.09375 0.875-0.0064-0.008-0.36398 0.23672-0.96875 0.40625-0.6366 0.17845-1.5223 0.36139-2.5312 0.5-2.018 0.27722-4.5841 0.42267-7.1562 0.46875-2.5722 0.0461-5.1502-0.0105-7.1562-0.21875-1.003-0.10411-1.8753-0.24834-2.5-0.40625-0.53311-0.13477-0.82198-0.29698-0.875-0.3125 0.0082-0.0682-0.11342-0.41942-0.09375-0.9375 0.02623-0.69077 0.14835-1.6618 0.375-2.7812 0.4533-2.2389 1.2672-5.0859 2.125-7.875 1.7157-5.5782 3.6562-10.906 3.6562-10.906 0.27819-0.77528-0.76892-1.6219-1.4688-1.1875 0 0-0.81837 0.55423-1.8438 1.0625s-2.3047 0.88168-2.75 0.8125c-2.1711-0.33731-4.4514-2.2908-5.4375-4.375-1.042-2.2023-0.68014-5.2403 0.15625-7.8438 0.46071-1.4341 1.7525-2.7009 3.125-4.0938s2.8422-2.9362 3.2188-5.125c0.32082-1.8649-0.59576-3.441-1.3125-4.8125s-1.2171-2.5024-0.96875-3.4375c0.27963-1.053 1.1916-1.8681 2.4375-2.75 1.2459-0.88193 2.7713-1.7699 3.75-3.2812 1.9733-3.0471 2.4081-6.792 3.0625-10.188 0.6544-3.3955 1.4869-6.3526 3.7812-8.125 0.49089-0.37921 1.4556-0.30732 2.75-0.125 0.64721 0.0912 1.3362 0.19588 2.0625 0.15625 0.7263-0.0396 1.5435-0.27412 2.1875-0.84375 2.2726-2.0101 2.5244-4.9739 2.625-7.7812 0.10056-2.8074 0.08821-5.5598 1.125-7.5 1.8351-3.4341 5.6563-5.7781 8.5937-9.1562 4.3116-4.9584 6.583-11.547 11.594-14.438 0.52883-0.30503 1.1219-0.5133 1.75-0.65625zm-7.2812 2.8438c-2.9039 3.4793-4.8614 7.7952-7.5938 10.938-2.6512 3.049-6.6335 5.4536-8.8125 9.5312-1.3883 2.598-1.2776 5.6249-1.375 8.3438-0.09739 2.7189-0.38718 4.9761-1.9688 6.375-0.22811 0.20177-0.48607 0.31912-0.9375 0.34375-0.45143 0.0246-1.0469-0.066-1.6875-0.15625-1.2812-0.18046-2.898-0.51312-4.25 0.53125-2.9453 2.2752-3.8598 5.8284-4.5312 9.3125-0.67148 3.4841-1.1556 6.9898-2.7812 9.5-0.63904 0.98678-1.9033 1.8188-3.2188 2.75-1.3154 0.93116-2.7345 2.0202-3.2188 3.8438-0.49073 1.8479 0.39851 3.4848 1.125 4.875s1.2924 2.5897 1.125 3.5625c-0.24899 1.4473-1.3418 2.6969-2.6875 4.0625s-2.926 2.7964-3.5938 4.875c-0.91463 2.847-1.4689 6.3712-0.0625 9.3438 1.2685 2.6811 3.8993 4.9967 6.9375 5.4688 1.3268 0.20613 2.5818-0.33541 3.6875-0.875-0.60049 1.6684-1.5277 4.1508-2.875 8.5312-0.86811 2.8225-1.6785 5.7341-2.1562 8.0938-0.23887 1.1798-0.40416 2.2159-0.4375 3.0938-0.03334 0.87789-0.08667 1.6161 0.5625 2.3125 0.52634 0.56464 1.132 0.74178 1.9062 0.9375 0.77424 0.19572 1.7173 0.32707 2.7812 0.4375 2.1278 0.22086 4.7701 0.29722 7.4062 0.25 2.6361-0.0472 5.2718-0.20678 7.4062-0.5 1.0672-0.14661 2.0051-0.31368 2.7812-0.53125 0.77616-0.21757 1.3868-0.39857 1.9062-0.9375 0.65532-0.6799 0.67462-1.5154 0.625-2.4062-0.04962-0.89086-0.26854-1.9378-0.5625-3.0938-0.58792-2.3119-1.5775-5.0972-2.625-7.8125-1.7406-4.5122-3.0842-7.4252-3.6875-8.75l6.3125 1.375c0.46636 0.10499 0.98863-0.17731 1.1562-0.625 0 0 0.89233-2.4096 2.3125-5.0938s3.4777-5.5987 5.1875-6.5c1.543-0.81335 3.41-0.64533 5.5625-0.25s4.4909 1.0132 6.875 0.59375c1.938-0.34098 3.4985-1.6435 4.9063-2.5625 0.70386-0.4595 1.3551-0.8375 1.9062-1 0.55119-0.1625 0.96944-0.16627 1.4375 0.0625 0.52633 0.25725 0.75138 0.56951 0.9375 1.0625s0.27709 1.2082 0.28125 2c0.0083 1.5836-0.32144 3.4917 0.21875 5.2812 0.53426 1.7699 1.8133 3.3559 2.6875 4.7812 0.4371 0.71269 0.78159 1.3707 0.90625 1.875 0.12466 0.50426 0.09123 0.77763-0.125 1.0938-1.0241 1.4971-2.4589 1.9934-4.4688 2.0312-2.0099 0.0379-4.473-0.47997-7.0313-1.0625s-5.2289-1.1955-7.7187-1.2812c-2.4899-0.0858-4.9128 0.413-6.6875 2.2188-2.6981 2.7453-3.7389 6.649-3.7812 10.625-0.03907 3.672 0.77009 7.4317 2 10.625-9.0214 0.59858-18.067 0.7127-27 0.46875-23.253-0.63503-46.873-4.4099-68.812-12.219 0.30326-0.52153 0.60441-0.91649 1-1.0938 1.534-0.68736 3.6911-0.34397 6-0.0312 2.3089 0.31247 4.9011 0.57691 6.875-1.125 1.0083-0.86934 1.4228-2.0876 1.5938-3.2812 0.17094-1.1937 0.11339-2.42 0.0625-3.5938s-0.08348-2.273 0.0625-3.1562c0.14598-0.88322 0.42977-1.5026 1-1.9375 0.39642-0.30238 0.8328-0.36158 1.4688-0.3125 0.63596 0.0491 1.4056 0.24318 2.25 0.5 1.6889 0.51365 3.704 1.277 5.5938 0.28125 2.0559-1.0833 3.0614-3.0795 3.875-5 0.81364-1.9205 1.49-3.8313 2.5938-5.0625 5.3304-5.946 13.234-9.4999 19.406-15.344 2.673-2.5308 4.2369-5.7629 6.7188-7.625 1.1045-0.82868 2.7438-1.2214 4.4688-1.7188 1.7249-0.49731 3.616-1.139 4.8438-2.7812 1.8165-2.4297 3.263-5.5714 3.9062-8.8125 0.6433-3.2411 0.47053-6.6082-1.2188-9.3438-0.77232-1.2506-2.039-1.8919-3.3438-2.1875-1.3048-0.29564-2.696-0.31302-4.0312-0.34375-1.3353-0.0307-2.6428-0.0758-3.625-0.3125-0.98223-0.23675-1.5745-0.57987-1.9688-1.2812-0.70667-1.257-0.81014-3.0312-0.34375-4.7812s1.495-3.4439 2.6562-4.4688c0.48291-0.42621 1.0943-0.60275 1.9375-0.625 0.84322-0.0222 1.8407 0.14639 2.9062 0.3125s2.1757 0.33807 3.2812 0.28125c1.1055-0.0568 2.281-0.39554 3.1562-1.2812 1.8913-1.9139 2.0553-5.1665 2-7.9688-0.0295-1.4942-0.16086-1.8163-0.28125-2.7812 0.83628 0.72806 1.2078 1.1314 2.75 2.1875 2.6153 1.791 5.793 3.6417 8.6875 2.9062 5.6202-1.428 10.098-7.6017 13.5-13.844 1.5605-0.40138 3.093-0.91518 4.5938-1.5312 0.45935-0.18857 0.91852-0.39599 1.375-0.59375zm-79.437 9.8125c1.3248 0.0216 2.9874 1.5449 3.625 3.0312 0.55892 1.3028 0.32101 2.8676-0.125 4.6562-0.44601 1.7887-1.0805 3.7348-0.8125 5.8125 0.30075 2.3319 1.8159 4.3024 2.9062 6.0938 0.54519 0.89568 0.98201 1.7246 1.1875 2.4688 0.20549 0.74419 0.21188 1.3473-0.09375 2-0.10132 0.21637-0.2345 0.33481-0.5 0.46875s-0.67993 0.25925-1.1562 0.34375c-0.95264 0.16901-2.1707 0.21399-3.3125 0.75-2.1715 1.0194-3.9039 2.8956-5.5938 4.3125s-3.1507 2.2669-4.75 1.9062c-0.62693-0.14139-1.2513-0.66297-1.75-1.4375s-0.83688-1.7728-0.875-2.5625c-0.07631-1.5808 1.098-3.0172 2.5938-4.6875s3.295-3.4992 3.4688-6.0312c0.1607-2.3422-1.3131-4.2123-2.4688-5.875-0.56252-0.72521-0.99771-1.4379-1.2812-2.0625-0.04403-0.0919-0.08797-0.19174-0.125-0.28125-0.29621-0.71609-0.36737-1.304-0.1875-1.9375 0.50578-1.7815 1.8627-3.5962 3.5938-4.9062 0.94279-0.69978 1.8314-1.3857 2.9062-1.75 0.86946-0.29468 1.94-0.32573 2.75-0.3125zm-19.312 7.4688c-1.9121 0.21196-3.4428 1.6833-4.5 3.375-1.2082 1.9334-1.9415 4.2883-2.0625 6.2812-0.10709 1.7638 0.27195 3.873 1.125 5.6875 0.85305 1.8144 2.3052 3.435 4.375 3.5625 2.2233 0.13691 3.9714-1.4357 5.125-3.2812 1.1536-1.8456 1.843-4.0716 2-5.9688 0.14732-1.78-0.15608-3.9496-0.9375-5.8438s-2.1668-3.6393-4.2812-3.8125c-0.2884-0.0236-0.57059-0.0303-0.84375 0zm0.21875 2c0.15693-0.0189 0.31033-0.013 0.46875 0 1.0748 0.088 1.9599 1.0261 2.5938 2.5625 0.63383 1.5364 0.89786 3.5285 0.78125 4.9375-0.1263 1.526-0.76977 3.5442-1.7188 5.0625-0.94898 1.5183-2.0762 2.418-3.2812 2.3438-1.0517-0.0648-2.0007-0.97668-2.6875-2.4375s-1.0199-3.3608-0.9375-4.7188c0.0964-1.587 0.74945-3.7114 1.75-5.3125 0.87548-1.401 1.9327-2.3052 3.0312-2.4375zm-103 3.7812c1.3406 2.0698 10.847 16.615 21.312 29.938-1.8247 3.9606-3.5335 7.9791-5.125 12.031-0.0104-0.00016-0.0208-0.00016-0.0312 0-11.101 29.333-13.837 51.471-12.031 80.25 0.23928 3.7713 0.62277 7.537 1.0938 11.281-6.4563-8.1928-13.188-17.812-13.188-17.812-0.0931-0.14437-0.22336-0.26309-0.375-0.34375-0.81449-3.4386-1.5606-6.899-2.1875-10.406-0.56402-3.1555-1.0608-6.3556-1.4688-9.5625-1.0198-8.0172-1.5312-16.175-1.5312-24.469 0-25.052 4.8096-48.964 13.531-70.906zm329.06 12.75c4.5174 7.2884 8.5943 14.88 12.125 22.688 3.0898 6.8325 5.6426 13.928 7.8125 21.125 2.0861 6.9192 3.985 13.894 5.25 20.969-0.57023 0.095-1.1364 0.22437-1.6562 0.53125-0.63495 0.37485-1.1391 1.258-1.0312 2.125 1.211 9.7326 4.1446 16.991 3.0312 25.125-0.5718 4.1778-0.90653 9.7217-2.0625 14.219-0.57798 2.2485-1.3491 4.222-2.4062 5.5938-1.0572 1.3718-2.3114 2.1851-4.0938 2.3125-2.0764 0.14845-3.7138-0.47226-5.125-1.5312-1.4112-1.059-2.5678-2.5917-3.4688-4.1562-1.3588-2.3598-1.3082-5.2019-1-8.3438s0.89151-6.5172 0.21875-9.7812c-0.47442-2.3017-1.9968-5.0845-4.0938-7.4688-2.0969-2.3842-4.8152-4.3995-7.8438-4.625-5.5068-0.41011-8.1503 3.4945-8.875 4.75-0.72366 0.0138-15.488 0.26836-23.094 0.71875-2.499 0.14797-3.8659 1.4548-5.3438 2.4688s-3.185 1.9229-6.9688 1.9375c-3.2294 0.0124-5.3506-1.0443-7.4375-2.125s-4.228-2.2493-7-1.7812c-2.68 0.45251-5.7528 1.9835-6.8125 4.8125-0.62064 1.6569-0.67734 3.613-0.25 5.4375s1.3526 3.5616 2.9062 4.5938c1.9123 1.2704 4.0655 1.556 6.2188 1.3125 2.1533-0.24352 4.35-0.99851 6.5-1.8125 4.3-1.628 8.5024-3.4837 11.625-2.9062 2.7492 0.50842 4.9488 2.6335 6.25 5.3125s1.621 5.8668 0.8125 8.1562c-1.5246 4.3172-5.9189 9.0118-11.406 12.531-5.4874 3.5194-12.031 5.8828-17.688 5.875-8.6332-0.0119-14.53-2.5416-19.219-6.3438-0.13886-4.6565-0.32389-9.3214-0.59375-13.969-0.64555-11.117-1.6463-22.242-3.0312-33.312 1.8884-0.67914 3.7693-1.3906 5.625-2.1562 27.902-11.512 55.171-29.356 72.938-53.906 3.4625-4.7846 6.523-11.301 9.1875-18.375zm-306.38 18.938c3.9417 4.9287 7.8761 9.4661 11.406 12.812 11.404 10.811 24.044 20.752 37.781 28.594-0.0678 0.20091-0.12399 0.3908-0.1875 0.59375-0.27626 0.88283-0.49533 1.787-0.5 2.7188-0.005 0.93171 0.23825 1.9188 0.875 2.75 0.74372 0.97083 1.782 1.4811 2.8438 1.6875 1.0617 0.20639 2.167 0.15315 3.25 0.0625 2.1661-0.1813 4.2954-0.45735 5.6875 0.0937 1.2593 0.49875 2.4424 1.8995 3.75 3.3125 0.73846 0.79798 1.5805 1.6073 2.5625 2.1562-0.0944 0.72755-0.19116 1.4595-0.28125 2.1875-0.0645 0.52118-0.12679 1.041-0.1875 1.5625-7.387 0.23048-13.552 2.4724-19.969 4.4688-6.638 2.065-15.527 3.16-20.094 8.4688-6.1604 7.1606-6.7608 18.573-4.25 27.438 1.1261 3.9759 4.0011 6.8456 6.9688 9.5s6.0499 5.1147 7.9062 8.1562c2.6891 4.406 3.6404 10.272 4.9688 15.906 1.3284 5.6339 3.0939 11.125 7.8125 14.562 3.6646 2.6694 8.1133 2.7898 12.531 2.5 2.1141-0.13866 4.247-0.34614 6.3125-0.46875 0.10775 0.69481 0.20092 1.3997 0.3125 2.0938 0.83654 5.2036 1.782 10.388 2.8125 15.562-16.298-5.9026-31.672-14.699-46.094-24.406-13.651-9.1886-25.828-20.632-37.125-32.688-1.2551-1.3395-2.6825-3.047-4.1562-4.8438-0.65987-4.7831-1.1953-9.5725-1.5-14.375-1.7935-28.591 0.88402-50.282 11.906-79.406 1.4541-3.7021 3.0073-7.3783 4.6562-11zm132.44 12.125c-0.86718 0.03-1.7836 0.25329-2.7188 0.5625-1.8702 0.61842-3.8933 1.6838-5.9375 2.9688-4.0883 2.5698-8.2488 5.9864-11 8.3438-1.3009 1.1146-1.4098 2.7618-1.5312 4.0938-0.12146 1.332-0.28855 2.3871-0.8125 2.9062-0.29687 0.29414-1.0013 0.42164-2 0.5-0.99865 0.0784-2.3131 0.1364-3.2188 1.2188-0.97467 1.1649-0.72045 2.5776-0.59375 3.6562 0.1267 1.0787 0.12561 1.7992-0.15625 2.125-0.45223 0.52278-1.2324 0.83693-2.3125 0.96875s-2.3801 0.0612-3.6875 0.0312-2.6098-0.0417-3.7812 0.28125c-1.1714 0.32299-2.2897 1.2075-2.5625 2.5938-0.51262 2.6053 0.91477 5.0425 3.0938 6.6875s5.1594 2.6401 8.25 2.5938c3.7633-0.0564 6.3071-1.9128 8.3438-3.4062 1.0183-0.74673 1.9208-1.3984 2.7812-1.7812 0.86042-0.38287 1.659-0.51949 2.6562-0.28125 0.86444 0.20652 1.5871 0.88951 2.2812 2 0.69418 1.1105 1.2737 2.5936 1.9062 4.0312 0.63255 1.4376 1.2784 2.8359 2.25 3.9062 0.97157 1.0703 2.5053 1.7539 4.1562 1.3125 0.9935-0.2656 1.689-0.97644 2.2812-1.75 0.59222-0.77356 1.1079-1.6865 1.7188-2.625 1.2217-1.8769 2.7479-3.8924 5.625-5.3125 0.70777-0.34933 1.2806-0.93291 1.5-1.625 0.21941-0.69209 0.13461-1.3867-0.0625-2.0625-0.39422-1.3516-1.2655-2.7342-2.25-4.2188-1.9691-2.969-4.3346-6.3665-4.4375-8.5625-0.16656-3.5556 0.45667-7.2981 2.6875-10.062 0.91865-1.1384 1.5095-2.7402 1.6562-4.3438 0.07339-0.8018 0.02504-1.5963-0.21875-2.3438-0.24379-0.74747-0.70844-1.465-1.4688-1.875-0.74145-0.39981-1.5703-0.56126-2.4375-0.53125zm0.03125 2.0312c0.60114-0.0231 1.0821 0.0584 1.4375 0.25 0.2415 0.13022 0.40312 0.32589 0.53125 0.71875s0.18005 0.96101 0.125 1.5625c-0.11011 1.203-0.65625 2.5842-1.2188 3.2812-2.6648 3.3022-3.3053 7.5574-3.125 11.406 0.15576 3.3252 2.8284 6.6651 4.75 9.5625 0.96079 1.4487 1.7397 2.7952 2 3.6875 0.13013 0.44616 0.14467 0.74563 0.09375 0.90625s-0.12538 0.26803-0.46875 0.4375c-3.3076 1.6325-5.1512 4.0551-6.4375 6.0312-0.64314 0.98806-1.1526 1.8517-1.625 2.4688-0.47242 0.61708-0.85041 0.93278-1.2188 1.0312-1.0019 0.26785-1.4706 0.002-2.125-0.71875-0.6544-0.72093-1.289-1.9721-1.9062-3.375-0.61725-1.4029-1.2324-2.9533-2.0625-4.2812-0.83013-1.328-1.9462-2.4963-3.5312-2.875-1.4394-0.34387-2.7605-0.10361-3.9062 0.40625-1.1458 0.50986-2.1427 1.2568-3.1562 2-2.0272 1.4865-4.0476 2.9529-7.1875 3-2.6301 0.0394-5.2521-0.84435-7.0312-2.1875-1.7792-1.3432-2.6451-3.0283-2.3125-4.7188 0.13241-0.67296 0.37668-0.82491 1.125-1.0312 0.74832-0.20634 1.909-0.24806 3.1875-0.21875 1.2785 0.0293 2.6765 0.099 4-0.0625 1.3235-0.16152 2.6417-0.56055 3.5625-1.625 0.99554-1.1509 0.75209-2.5743 0.625-3.6562-0.12709-1.082-0.12203-1.8237 0.15625-2.1562 0.25611-0.30609 0.86582-0.45452 1.8438-0.53125 0.97793-0.0767 2.2921-0.0825 3.2812-1.0625 1.2063-1.1952 1.255-2.8094 1.375-4.125 0.11998-1.3156 0.295-2.2798 0.84375-2.75 2.7194-2.3301 6.8225-5.7188 10.75-8.1875 1.9638-1.2344 3.8836-2.2468 5.5-2.7812 0.8082-0.26724 1.5239-0.38317 2.125-0.40625zm209.91 28.375c0.30033 0.004 0.67313 0.055 1.0625 0.125 0.77874 0.14015 1.6468 0.38251 2.5 0.59375 0.78934 0.19544 1.5448 0.364 2.3125 0.3125-0.15868 7.1674-0.70302 14.234-1.625 21.188-0.17545 0.10029-0.31921 0.25511-0.40625 0.4375 0 0-4.6181 8.5024-10.281 17.781 0.10606-11.171-0.18775-22.421-1.7812-33.531-0.0901-0.62817-0.1806-1.2486-0.28125-1.875 0.85922-0.10042 1.7337-0.25892 2.5312-0.71875 1.1776-0.67892 2.0588-1.6244 2.875-2.4375 0.81616-0.81305 1.5656-1.4824 2.4062-1.7812 0.15931-0.0566 0.38717-0.0983 0.6875-0.0937zm-10.5 5.2812c0.10212 0.63309 0.22149 1.2717 0.3125 1.9062 0.62922 4.387 1.0384 8.8116 1.3125 13.25-0.75732-4.664-1.9912-9.3739-2.6562-14.719-0.0263-0.21107-0.0882-0.0487 0.0937-0.15625 0.14372-0.0849 0.50218-0.19464 0.9375-0.28125zm-218 2.5c-0.34574-0.009-0.70283 0.003-1.0625 0.0312-0.71934 0.0559-1.4601 0.20226-2.1562 0.4375-1.3923 0.47049-2.7673 1.3974-3 3-0.2432 1.6748 0.85361 3.0596 2.125 3.9688 1.2714 0.9091 2.7912 1.4808 4.1875 1.5938 1.2006 0.0971 2.5485-0.18764 3.7188-0.78125s2.2485-1.5635 2.4062-3c0.1608-1.4638-0.71344-2.6901-1.75-3.5312-1.0366-0.84113-2.2836-1.418-3.4688-1.625-0.31987-0.0559-0.65426-0.0851-1-0.0937zm-0.90625 2.0312c0.57537-0.0385 1.1242-0.014 1.5625 0.0625 0.78114 0.13645 1.8264 0.59022 2.5625 1.1875 0.73606 0.59728 1.0884 1.2297 1.0312 1.75-0.05426 0.49396-0.5256 1.0225-1.3438 1.4375-0.81815 0.415-1.8899 0.62194-2.625 0.5625-0.92972-0.0752-2.273-0.54251-3.2188-1.2188-0.94573-0.67624-1.4046-1.4279-1.3125-2.0625 0.08181-0.56339 0.63572-1.0614 1.6562-1.4062 0.51027-0.17243 1.1121-0.27397 1.6875-0.3125zm-38.844 0.4375c22.254 7.9622 46.187 11.795 69.719 12.438 9.2464 0.25251 18.637 0.15279 28-0.5 1.2377 1.9294 3.3578 3.6266 5.2812 5.0312 0.96925 0.70782 1.0903 0.71047 1.8438 1.1875-4.7454 0.43475-46.327 4.1638-68.312 0.9375-7.0903-1.0405-13.854-4.3246-20.75-7.4062-6.6991-2.9938-13.529-5.7905-20.906-5.9688 0.0514-0.43759 0.10214-0.87527 0.15625-1.3125 0.0734-0.59269 0.14252-1.1888 0.21875-1.7812 0.21268 0.0211 0.43072 0.0408 0.65625 0.0312 1.1532-0.049 2.0928-0.43567 2.7812-1 0.60124-0.49282 0.99007-1.0823 1.3125-1.6562zm142.56 3.4062c1.3446 10.871 2.3345 21.796 2.9688 32.719 0.23346 4.0206 0.39652 8.0343 0.53125 12.062-3.7829-3.6379-6.79-8.1623-9.8438-12.75-0.73366-1.1022-0.72175-2.8036-0.6875-4.7188 0.03425-1.9151 0.09022-4.1016-1.4062-5.75-1.3686-1.5075-3.3503-2.8203-5.4688-3.5625-2.1185-0.74216-4.4661-0.9189-6.4062 0.21875-4.1575 2.4379-5.9576 8.4084-3.1562 13.719 7.386 14.001 10.385 25.509 23.062 33.812 1.2903 0.84507 2.69 1.3915 4.1562 1.7188-0.14622 12.913-0.75846 25.837-1.8438 38.688-0.19316 2.2872-0.45809 4.8591-0.78125 7.5625-0.86495 0.64445-1.645 1.4025-2.3438 2.2812-12.397 3.7151-25.051 6.3961-37.781 7.8125-22.216 2.4718-44.992 0.89601-67.219-3.3125-0.04434-2.1287 0.0041-4.3202 0-6.5-0.0099-5.2738-0.39908-10.582-4-14.531-3.7055-4.0643-8.9091-5.703-14.344-6.5625-5.4347-0.85947-11.178-0.94563-16.156-1.8125-1.6656-0.29001-3.3826-0.35582-5.0938-0.3125-1.4786-9.8697-2.5472-19.797-2.9688-29.75-0.80109-18.914-1.1838-37.968 0.84375-56.719 6.9749 0.12107 13.617 2.8065 20.344 5.8125 6.8558 3.0638 13.779 6.4616 21.281 7.5625 23.892 3.506 71.719-1.1562 71.719-1.1562 0.80782-0.11845 1.0724-1.4192 0.375-1.8438 0 0-1.99-1.114-4.1875-2.7188-1.4454-1.0555-2.9438-2.3629-4-3.5938 14.463-1.1605 28.813-3.7172 42.406-8.375zm-149.91 4.3438c-2.0216 18.847-1.6743 37.91-0.875 56.781 0.42247 9.9747 1.495 19.889 2.9688 29.75-2.0684 0.13616-4.1318 0.36926-6.125 0.5-4.2896 0.28137-8.1905 0.10369-11.25-2.125-4.0822-2.9737-5.7276-7.9085-7.0312-13.438-1.3036-5.529-2.2042-11.581-5.1875-16.469-2.1107-3.4584-5.3728-6.0235-8.2812-8.625-2.9085-2.6015-5.4259-5.2116-6.375-8.5625-2.3622-8.3401-1.6891-19.168 3.8125-25.562 3.776-4.3891 12.289-5.6978 19.188-7.8438 6.3948-1.9894 12.259-4.1357 19.156-4.4062zm234.16 1.2812c0.30598-0.0114 0.63676 0.007 0.96875 0.0312 2.2124 0.16477 4.5809 1.791 6.4688 3.9375 1.8878 2.1465 3.2626 4.804 3.625 6.5625 0.56851 2.7582 0.0671 5.9237-0.25 9.1562-0.3171 3.2326-0.42824 6.5938 1.2812 9.5625 0.98774 1.7153 2.2796 3.4589 4 4.75s3.9021 2.121 6.4688 1.9375c1.3874-0.0992 2.5977-0.56544 3.625-1.2812-1.466 2.0467-2.8912 3.9157-4.2188 5.4688-15.248 17.839-32.543 34.683-52.75 46.406-15.661 9.0862-32.478 16.722-49.875 22.344 1.8759-1.0925 4.0776-1.866 6.4062-2.625 3.9776-1.2964 8.2508-2.5141 11.312-5.5938 5.5687-5.6014 6.7243-13.921 10.5-20 1.068-1.7196 2.7536-3.2904 4.3438-5 1.5901-1.7096 3.1204-3.5999 3.625-6.0625 0.39943-1.9492 0.52844-4.2337 0.15625-6.4062s-1.2813-4.2873-3.0938-5.5938c-2.2109-1.5936-5.0552-1.7916-8.125-1.4375-3.0698 0.35407-6.4449 1.2927-9.8438 2.1562-4.588 1.1656-9.1936 2.1882-13.094 1.8125 0.04329-5.5364-0.01949-11.061-0.15625-16.594 4.8082 3.4861 10.9 5.7699 19.156 5.7812 6.2066 0.009 13.031-2.4998 18.781-6.1875 5.7498-3.6877 10.452-8.5588 12.219-13.562 1.0473-2.9656 0.60122-6.5838-0.90625-9.6875s-4.1581-5.7223-7.6875-6.375c-4.1049-0.75912-8.5133 1.3766-12.719 2.9688-2.1027 0.7961-4.153 1.4786-6 1.6875-1.847 0.20888-3.452-0.0339-4.9062-1-0.98028-0.65124-1.7201-1.9132-2.0625-3.375-0.34239-1.4618-0.25899-3.0581 0.1875-4.25 0.66034-1.7628 3.1262-3.1674 5.2812-3.5312 2.091-0.35306 3.6168 0.4428 5.7188 1.5312 2.1019 1.0884 4.6858 2.3892 8.375 2.375 4.1316-0.0159 6.4563-1.1578 8.0938-2.2812 1.6374-1.1234 2.4704-2.0141 4.3438-2.125 7.6818-0.45487 23.563-0.75 23.563-0.75 0.38164-0.003 0.75119-0.24502 0.90625-0.59375 0 0 1.6915-3.9856 6.2812-4.1562zm44.906 8.1875c-2.3656 14.705-6.3762 28.861-11.875 42.25 0.60331-6.3322 1.5539-17.081 1.875-25.312 4.1687-6.6688 7.8093-13.01 10-16.938zm-11.938 3.5625c0.0522 3.1351 0.061 6.2731 0.0312 9.4062-0.01 1.0212-0.0514 2.2237-0.0937 3.4062-0.92292 1.4709-1.8712 2.9399-2.8125 4.375 0.28171-0.77734 0.53487-1.5694 0.75-2.4062 1.2322-4.7936 1.542-10.407 2.0938-14.438 0.0158-0.11534 0.0171-0.22885 0.0312-0.34375zm-134.34 2.0312c0.80326-0.002 1.6778 0.15881 2.5625 0.46875 1.7694 0.61988 3.5141 1.8076 4.625 3.0312 0.86712 0.95517 0.93986 2.4958 0.90625 4.375s-0.18358 4.05 1.0312 5.875c3.4166 5.1328 6.8583 10.342 11.594 14.406 0.16564 5.9451 0.23107 11.893 0.1875 17.844-1.1006-0.27716-2.1313-0.70266-3.0625-1.3125-12.089-7.9172-14.916-18.895-22.406-33.094-2.3497-4.4542-0.72967-9.2236 2.4062-11.062 0.62098-0.36414 1.353-0.52917 2.1562-0.53125zm-229.31 13.188c2.9766 4.1587 8.0652 11.099 12.781 16.875 0.23335 1.6585 0.49391 3.3168 0.75 4.9688 1.0055 6.4863 2.1718 12.978 3.7812 19.375 0.26916 1.0698 0.67496 2.4106 1.0938 3.7812-7.9317-14-14.171-29.096-18.406-45zm363.41 1.5938c-0.64029 11.809-2.1875 26.969-2.1875 26.969-0.0562 0.20457-0.0451 0.42706 0.0312 0.625-15.608 34.742-41.231 64.011-73.188 84.125-1.4207 0.89423-2.8358 1.7672-4.2812 2.625-0.03241 0.0192-0.06133 0.0433-0.09375 0.0625-0.05236 0.0309-0.10385 0.0629-0.15625 0.0937-1.4273 0.84401-2.893 1.6609-4.3438 2.4688-1.5036 0.83731-3.0032 1.6397-4.5312 2.4375-1.2892 0.67306-2.6001 1.3243-3.9062 1.9688-0.24205 0.11943-0.47612 0.25656-0.71875 0.375-0.23868 0.11613-0.47952 0.22858-0.71875 0.34375-1.3165 0.63592-2.6357 1.2684-3.9688 1.875-0.08495 0.0385-0.16499 0.0866-0.25 0.125-0.81607 0.36991-1.6466 0.7037-2.4688 1.0625-0.61304 0.26667-1.2274 0.55204-1.8438 0.8125-0.0644 0.0273-0.12307 0.0665-0.1875 0.0937-1.3751 0.57932-2.7651 1.1082-4.1562 1.6562-0.2301 0.091-0.45697 0.19115-0.6875 0.28125-1.2278 0.47822-2.4476 0.95266-3.6875 1.4062-0.39701 0.14577-0.78926 0.29428-1.1875 0.4375-1.0803 0.3871-2.1608 0.75676-3.25 1.125-0.0093 0.003-0.02196-0.003-0.03125 0-2.2041 0.7448-4.4484 1.4274-6.6875 2.0938 0.58257-3.0673 5.6137-29.731 8.25-50.344 18.069-5.7074 35.531-13.59 51.75-23 20.498-11.893 37.921-28.911 53.25-46.844 2.8695-3.3571 6.107-8.0118 9.25-12.875zm-348.16 18.25c0.73386 0.84878 1.4557 1.6607 2.125 2.375 11.355 12.118 23.637 23.658 37.469 32.969 14.835 9.9858 30.741 19.078 47.688 25.062 1.7302 8.4293 3.7154 16.81 6.0312 25.094 2.1285 7.6134 6.8545 20.432 8.4062 24.594-39.425-15.125-72.601-42.837-94.594-78.219 0.0985-0.22715 0.14159-0.48377 0.0625-0.71875 0 0-2.332-6.8812-3.1875-10.281-1.5864-6.3054-2.749-12.73-3.75-19.188-0.0871-0.56152-0.16544-1.1257-0.25-1.6875zm262.16 11.219c1.9236-0.0172 3.5205 0.3238 4.7188 1.1875 1.2356 0.8906 1.9642 2.4618 2.2812 4.3125 0.31706 1.8507 0.19858 3.9247-0.15625 5.6562-0.38431 1.8755-1.6071 3.4931-3.125 5.125s-3.2942 3.2391-4.5625 5.2812c-4.0907 6.5868-5.2752 14.684-10.219 19.656-2.58 2.5951-6.5186 3.786-10.531 5.0938-2.0727 0.67552-4.1803 1.3931-6.0938 2.4062 0.24196-2.1258 0.4684-4.177 0.625-6.0312 1.0821-12.813 1.6925-25.686 1.8438-38.562 4.3171 0.39697 9.1008-0.75683 13.625-1.9062 3.4181-0.86841 6.721-1.766 9.5625-2.0938 0.71038-0.0819 1.3901-0.11928 2.0312-0.125zm-176.47 29.125c1.5395-0.0275 3.0275 0.0357 4.4375 0.28125 5.2009 0.90562 10.944 1.0146 16.187 1.8438 5.243 0.82915 9.9316 2.335 13.188 5.9062 3.0471 3.3422 3.4591 8.0182 3.4688 13.188 0.0037 1.9897-0.05714 4.0459-0.03125 6.0938-9.4225-1.8548-18.746-4.1629-27.875-6.8438-2.0433-0.60006-4.0779-1.2742-6.0937-1.9688-1.119-5.5209-2.1066-11.068-3-16.625-0.10013-0.62285-0.18428-1.2516-0.28125-1.875zm3.7812 20.812c1.6712 0.56056 3.3402 1.0971 5.0312 1.5938 9.3402 2.7429 18.877 5.0856 28.531 6.9688 0.12872 2.5675 0.44482 5.1166 1.3125 7.5 1.743 4.7879 5.4996 8.2723 7.2188 12.406 1.1773 2.831 1.1565 7.381 1.4688 11.438 0.1561 2.0282 0.41267 3.9549 1.0312 5.5625 0.61858 1.6076 1.7365 2.96 3.4688 3.4062 3.9176 1.0094 5.3241 3.9056 6.7188 6.9688 0.68738 1.5098 1.3386 3.0337 2.3125 4.3125-14.688-1.8339-28.878-5.3002-42.344-10.25-0.26772-0.71089-6.5443-17.422-8.9688-26.094-2.1971-7.8587-4.1099-15.813-5.7812-23.812zm142.37 3.9375c-2.7832 21.344-8.2085 49.666-8.3438 50.375-1.5329 0.43665-3.0455 0.85064-4.5938 1.25 0.06405-0.18506 0.11135-0.36991 0.15625-0.5625 0.34272-1.4702 0.31154-3.1845 0.21875-5-0.18558-3.631-0.56011-7.6755 0.375-10.031 1.125-2.834 4.3638-4.9905 5.9062-8.5625 1.9858-4.5988 2.0136-9.7765 2.3125-14.656 0.28901-4.719 0.82179-9.1398 3.25-12.594 0.24016-0.0726 0.4788-0.14535 0.71875-0.21875zm-3.5312 1.0625c-1.7848 3.5524-2.1913 7.6048-2.4375 11.625-0.30304 4.948-0.3884 9.8747-2.1562 13.969-1.2161 2.8163-4.4952 4.9915-5.9375 8.625-1.2617 3.1786-0.68032 7.3781-0.5 10.906 0.09016 1.7641 0.09646 3.3534-0.15625 4.4375-0.25271 1.084-0.5782 1.5292-1.3438 1.7188-7.9131 1.9598-18.462 3.6675-27.25 4.5312-1.0252 0.0944-2.0327 0.20297-3.0625 0.28125-0.11273 0.009-0.23187 0.0228-0.34375 0.0312-0.72615 0.0539-1.4591 0.0792-2.1875 0.125-0.82787 0.0478-1.6772 0.10024-2.4375 0.125-9.0324 0.29419-17.649 0.23211-28-0.59375-0.50154-0.0469-0.99958-0.0742-1.5-0.125-0.12482-0.0127-0.25025-0.0184-0.375-0.0312-1.0812-0.21404-1.7713-0.79514-2.4375-1.6562-0.76862-0.9935-1.4165-2.4126-2.125-3.9688-1.417-3.1123-3.3094-6.8147-8.0312-8.0312-1.0298-0.26533-1.6417-0.96277-2.125-2.2188-0.48327-1.256-0.72412-3.0083-0.875-4.9688-0.30177-3.9208-0.17569-8.5774-1.625-12.062-1.9454-4.678-5.6658-8.1639-7.1875-12.344-0.71596-1.9667-1.0173-4.1319-1.1562-6.4062 22.234 4.1711 45.043 5.7313 67.344 3.25 12.096-1.3458 24.116-3.8143 35.906-7.2188z"/>
      <path id="path3954" style="block-progression:tb;color:#000000;text-transform:none;text-indent:0" d="m103.81 10.884a1.0007 0.99947 0 0 0 -0.21875 0.03125 1.0007 0.99947 0 0 0 -0.71875 0.6875l-4.9688 14.281-15.188-0.03125a1.0007 0.99947 0 0 0 -0.59375 1.7812l12.062 9.1875-4.7188 14.375a1.0007 0.99947 0 0 0 1.5 1.1562l12.469-8.6875 12.25 8.9688a1.0007 0.99947 0 0 0 1.5312 -1.0938l-4.3438-14.5 12.281-8.875a1.0007 0.99947 0 0 0 0.0937 -0.0625 1.0007 0.99947 0 0 0 0.0625 -0.03125 1.0001 1.0001 0 0 0 0.1875 -0.125l11.312-9.125c1.5975-1.2915 1.9947-3.653 0.71875-5.2188a1.0001 1.0001 0 0 0 -0.0312 0l-0.15625-0.1875c-0.64181-0.77562-1.5586-1.1931-2.5-1.25-0.93075-0.0563-1.8945 0.23391-2.6875 0.875l-13.938 11.281c-0.62541 0.50563-1.0793 1.1644-1.3125 1.875l-7.4688-0.15625-4.6562-14.438a1.0007 0.99947 0 0 0 -0.96875 -0.71875zm30.562 3.2812c0.11133-0.01319 0.23108-0.0068 0.34375 0 0.43207 0.02613 0.83234 0.21047 1.0938 0.53125l0.15625 0.1875c0.53149 0.6522 0.42289 1.7047-0.40625 2.375l-11.031 8.9062-5.1562-0.09375c0.0552-0.05595 0.0306-0.13633 0.0937-0.1875l13.938-11.281c0.31527-0.25489 0.63475-0.39794 0.96875-0.4375zm-30.562 0.875 3.9375 12.281a1.0007 0.99947 0 0 0 0.9375 0.6875l12.906 0.28125-10.469 7.5312a1.0007 0.99947 0 0 0 -0.40625 1.0938l3.75 12.344-10.438-7.5938a1.0007 0.99947 0 0 0 -1.1562 0l-10.594 7.3125 4.0312-12.219a1.0007 0.99947 0 0 0 -0.34375 -1.0938l-10.281-7.8438 12.906 0.0625a1.0007 0.99947 0 0 0 0.96875 -0.65625l4.25-12.188z"/>
      <path id="path3957" style="block-progression:tb;color:#000000;text-transform:none;text-indent:0" d="m127.53 47.415a1.0001 1.0001 0 0 0 -0.90625 0.6875l-5 14.312-15.156-0.0625a1.0001 1.0001 0 0 0 -0.59375 1.8125l12.062 9.1562-4.7188 14.406a1.0001 1.0001 0 0 0 1.5 1.125l12.469-8.6562 12.25 8.9688a1.0001 1.0001 0 0 0 1.5312 -1.125l-4.3438-14.5 12.281-8.8438a1.0001 1.0001 0 0 0 -0.5625 -1.8125l-15.156-0.34375-4.6562-14.406a1.0001 1.0001 0 0 0 -1 -0.71875zm0 4.1562 3.9688 12.281a1.0001 1.0001 0 0 0 0.90625 0.6875l12.906 0.28125-10.469 7.5312a1.0001 1.0001 0 0 0 -0.375 1.0938l3.7188 12.312-10.406-7.5938a1.0001 1.0001 0 0 0 -1.1562 0l-10.594 7.3438 4.0312-12.25a1.0001 1.0001 0 0 0 -0.34375 -1.0938l-10.281-7.8125 12.906 0.0625a1.0001 1.0001 0 0 0 0.96875 -0.6875l4.2188-12.156z"/>
      <path id="path3959" style="block-progression:tb;color:#000000;text-transform:none;text-indent:0" d="m154.75 85.29a1.0001 1.0001 0 0 0 -0.78125 0.65625l-5 14.313-15.188-0.0312a1.0001 1.0001 0 0 0 -0.59375 1.7812l12.094 9.1562-4.75 14.406a1.0001 1.0001 0 0 0 1.5312 1.125l12.469-8.625 12.219 8.9375a1.0001 1.0001 0 0 0 1.5625 -1.0938l-4.375-14.5 12.281-8.875a1.0001 1.0001 0 0 0 -0.5625 -1.8125l-15.156-0.3438-4.6562-14.406a1.0001 1.0001 0 0 0 -1.0938 -0.6875zm0.0937 4.1562 3.9688 12.25a1.0001 1.0001 0 0 0 0.9375 0.6875l12.875 0.28125-10.438 7.5312a1.0001 1.0001 0 0 0 -0.375 1.0938l3.7188 12.312-10.406-7.5625a1.0001 1.0001 0 0 0 -1.1562 -0.0312l-10.594 7.3438 4-12.219a1.0001 1.0001 0 0 0 -0.34375 -1.125l-10.219-7.7812 12.844 0.0312a1.0001 1.0001 0 0 0 0.96875 -0.65625l4.2188-12.156z"/>
      <path id="path3961" style="block-progression:tb;color:#000000;text-transform:none;text-indent:0" d="m176.28 124.92a1.0001 1.0001 0 0 0 -0.90625 0.6875l-5 14.312-15.156-0.0625a1.0001 1.0001 0 0 0 -0.59375 1.8125l12.062 9.1562-4.7188 14.406a1.0001 1.0001 0 0 0 1.5 1.125l12.469-8.6562 12.25 8.9688a1.0001 1.0001 0 0 0 1.5312 -1.125l-4.3438-14.5 12.281-8.8438a1.0001 1.0001 0 0 0 -0.5625 -1.8125l-15.156-0.34375-4.6562-14.406a1.0001 1.0001 0 0 0 -1 -0.71875zm0 4.1562 3.9688 12.281a1.0001 1.0001 0 0 0 0.90625 0.6875l12.906 0.28125-10.469 7.5312a1.0001 1.0001 0 0 0 -0.375 1.0938l3.7188 12.312-10.406-7.5938a1.0001 1.0001 0 0 0 -1.1562 0l-10.594 7.3438 4.0312-12.25a1.0001 1.0001 0 0 0 -0.34375 -1.0938l-10.281-7.8125 12.906 0.0625a1.0001 1.0001 0 0 0 0.96875 -0.6875l4.2188-12.156z"/>
      <path id="path3963" style="block-progression:tb;color:#000000;text-transform:none;text-indent:0" d="m195.22 176.17a1.0001 1.0001 0 0 0 -0.90625 0.6875l-5 14.312-15.156-0.0625a1.0001 1.0001 0 0 0 -0.625 1.8125l12.094 9.1562-4.75 14.406a1.0001 1.0001 0 0 0 1.5312 1.125l12.469-8.625 12.25 8.9375a1.0001 1.0001 0 0 0 1.5312 -1.125l-4.375-14.469 12.312-8.875a1.0001 1.0001 0 0 0 -0.5625 -1.8125l-15.188-0.34375-4.625-14.406a1.0001 1.0001 0 0 0 -1 -0.71875zm0 4.1562 3.9375 12.281a1.0001 1.0001 0 0 0 0.9375 0.6875l12.875 0.28125-10.438 7.5312a1.0001 1.0001 0 0 0 -0.375 1.0938l3.7188 12.344-10.406-7.625a1.0001 1.0001 0 0 0 -1.1562 0l-10.594 7.3438 4.0312-12.25a1.0001 1.0001 0 0 0 -0.34375 -1.0938l-10.281-7.8125 12.906 0.0625a1.0001 1.0001 0 0 0 0.9375 -0.6875l4.25-12.156z"/>
      <path id="path3965" style="block-progression:tb;color:#000000;text-transform:none;text-indent:0" d="m204.59 229.04a1.0001 1.0001 0 0 0 -0.8125 0.65625l-4.9688 14.312-15.188-0.0312a1.0001 1.0001 0 0 0 -0.625 1.7812l12.094 9.1562-4.75 14.406a1.0001 1.0001 0 0 0 1.5312 1.125l12.469-8.625 12.25 8.9375a1.0001 1.0001 0 0 0 1.5312 -1.0938l-4.375-14.5 12.312-8.875a1.0001 1.0001 0 0 0 -0.5625 -1.8125l-15.188-0.34375-4.625-14.406a1.0001 1.0001 0 0 0 -1.0938 -0.6875zm0.0937 4.125 3.9375 12.281a1.0001 1.0001 0 0 0 0.9375 0.6875l12.875 0.28125-10.437 7.5312a1.0001 1.0001 0 0 0 -0.375 1.0938l3.75 12.344-10.438-7.5938a1.0001 1.0001 0 0 0 -1.1562 -0.0312l-10.594 7.3438 4.0312-12.219a1.0001 1.0001 0 0 0 -0.34375 -1.125l-10.25-7.7812 12.875 0.0312a1.0001 1.0001 0 0 0 0.9375 -0.65625l4.25-12.188z"/>
      <path id="rect3993" style="block-progression:tb;color:#000000;text-transform:none;text-indent:0" d="m146.34 49.924c-1.8605 1.5042-2.1452 4.2436-0.63384 6.0982 1.5114 1.8547 4.2614 2.1405 6.1219 0.6363l5.4921-4.4403c1.8605-1.5042 2.1452-4.2436 0.63384-6.0982-1.5114-1.8547-4.2614-2.1405-6.1219-0.6363l-5.4921 4.4403zm1.2634 1.5504 5.4921-4.4403c1.0258-0.82933 2.4699-0.67922 3.3032 0.34333 0.83329 1.0226 0.68378 2.4611-0.342 3.2904l-5.4921 4.4403c-1.0258 0.82932-2.4699 0.67922-3.3032-0.34333s-0.68378-2.4611 0.342-3.2904z"/>
      <path id="rect3995" style="block-progression:tb;color:#000000;text-transform:none;text-indent:0" d="m171.07 82.694c-1.8605 1.5042-2.1452 4.2436-0.63384 6.0982 1.5114 1.8547 4.2614 2.1405 6.1219 0.63631l2.503-2.0237c1.8605-1.5042 2.1452-4.2436 0.63384-6.0982-1.5114-1.8547-4.2614-2.1405-6.1219-0.6363l-2.503 2.0237zm1.2634 1.5504 2.503-2.0237c1.0258-0.82932 2.4699-0.67922 3.3032 0.34333s0.68378 2.4611-0.342 3.2904l-2.503 2.0237c-1.0258 0.82932-2.4699 0.67922-3.3032-0.34333s-0.68378-2.4611 0.342-3.2904z"/>
      <path id="rect3997" style="block-progression:tb;color:#000000;text-transform:none;text-indent:0" d="m195.71 126.43c-1.8605 1.5042-2.1695 4.2632-0.65814 6.1178 1.5114 1.8547 4.3054 2.1451 6.166 0.64088l2.503-2.0236c1.8605-1.5042 2.1255-4.2678 0.61409-6.1224-1.5114-1.8547-4.2614-2.1405-6.1219-0.63631l-2.503 2.0237zm1.2634 1.5504 2.503-2.0237c1.0258-0.82932 2.4699-0.67922 3.3032 0.34333s0.70352 2.4853-0.32226 3.3146l-2.503 2.0236c-1.0258 0.82933-2.5139 0.67465-3.3472-0.34791-0.83329-1.0226-0.65948-2.4807 0.3663-3.31z"/>
      <path id="rect3999" style="block-progression:tb;color:#000000;text-transform:none;text-indent:0" d="m213.38 173.74c-1.8605 1.5042-2.1498 4.2874-0.6384 6.1421s4.2857 2.1208 6.1462 0.61666l2.503-2.0236c1.8605-1.5042 2.1452-4.2436 0.63384-6.0982s-4.2812-2.1647-6.1417-0.66053l-2.503 2.0237zm1.2634 1.5504 2.503-2.0237c1.0258-0.82932 2.4896-0.655 3.3229 0.36756s0.68378 2.4611-0.342 3.2904l-2.503 2.0236c-1.0258 0.82933-2.4942 0.69887-3.3275-0.32368-0.83329-1.0226-0.67922-2.505 0.34656-3.3343z"/>
      <path id="rect4001" style="block-progression:tb;color:#000000;text-transform:none;text-indent:0" d="m223.92 232.13c-1.8605 1.5042-2.1498 4.2874-0.63839 6.1421s4.2857 2.1208 6.1462 0.61666l2.503-2.0236c1.8605-1.5042 2.1452-4.2436 0.63384-6.0982-1.5114-1.8547-4.2812-2.1647-6.1417-0.66053l-2.503 2.0237zm1.2634 1.5504 2.503-2.0237c1.0258-0.82932 2.4896-0.655 3.3229 0.36756 0.83329 1.0226 0.68378 2.4611-0.342 3.2904l-2.503 2.0237c-1.0258 0.82932-2.4942 0.69887-3.3275-0.32368s-0.67922-2.505 0.34656-3.3343z"/>
      <path id="rect4015" style="block-progression:tb;color:#000000;text-transform:none;text-indent:0" d="m201.03 306.1c-1.6576 0.0873-3.0647 1.3784-3.375 3.125l-4.75 26.75c-0.29867 1.6811 0.50156 3.342 1.9375 4.0312-0.0835-0.0401 0.0884 0.0372 0.125 0.0625s-0.0419-0.002 0.125 0.0625v-0.0312c0.50314 0.24179 1.0811 0.43831 1.7188 0.4375h5.5312l-1.4375 8.0625a1.0001 1.0001 0 0 0 -0.0312 0c-0.27751 1.5621 0.39914 3.1048 1.6562 3.875v0.0312c0.0164 0.0111 0.046-0.0108 0.0625 0 0.62982 0.41163 1.3799 0.65728 2.1875 0.65625l14.594-0.0312c2.0113-0.003 3.7601-1.503 3.75-3.4688v-1.0625c-0.0102-1.9687-1.7804-3.4401-3.7812-3.4375h-9.6875l0.8125-4.6562h3.0938c2.0113-0.003 3.7601-1.503 3.75-3.4688v-1.0625c-0.0102-1.9686-1.7668-3.4713-3.7812-3.4688h-1.625l1.625-9.25c0.34921-1.9657-0.83783-3.9628-2.75-4.3125h-0.0312l-1.0312-0.1875a1.0001 1.0001 0 0 0 -0.0312 0c-1.9282-0.33485-3.7109 1.1146-4.0625 3.0938l-1.875 10.688h-2.0625l3.875-21.906c0.34846-1.9614-0.84523-3.9253-2.75-4.2812h-0.0312l-1-0.1875a1.0001 1.0001 0 0 0 -0.0312 -0.0312c-0.23746-0.0412-0.47528-0.0441-0.71875-0.0312zm0.125 2c0.0861-0.005 0.18239 0.0141 0.28125 0.0312v-0.0312l1 0.1875a1.0001 1.0001 0 0 0 0.0312 0.0312c0.76115 0.13218 1.2791 0.89424 1.0938 1.9375l-4.0938 23.094a1.0001 1.0001 0 0 0 1 1.1875h4.125a1.0001 1.0001 0 0 0 1 -0.8125l2.0312-11.5c0.18224-1.0258 0.96561-1.581 1.7188-1.4688h0.0312l1.0312 0.1875a1.0001 1.0001 0 0 0 0.0312 0c0.76115 0.13218 1.2791 0.89424 1.0938 1.9375l-1.8436 10.438a1.0001 1.0001 0 0 0 1 1.1875h2.8438c1.0518-0.001 1.7773 0.70651 1.7812 1.4688v1.0625c0.004 0.76509-0.69517 1.4674-1.75 1.4688h-3.9375a1.0001 1.0001 0 0 0 -1 0.8125l-1.1875 6.6562a1.0001 1.0001 0 0 0 1 1.1875h10.906c1.0653-0.001 1.7773 0.67534 1.7812 1.4375v1.0625c0.004 0.76507-0.69519 1.4674-1.75 1.4688l-14.594 0.0312c-0.43784 0.00056-0.83016-0.14433-1.125-0.34375a1.0001 1.0001 0 0 0 -0.0625 -0.0312c-0.51113-0.29441-0.86651-0.98077-0.71875-1.8125h-0.0312l1.6562-9.25a1.0001 1.0001 0 0 0 -0.96875 -1.1875h-6.7188c-0.33455 0.00043-0.6127-0.0673-0.90625-0.21875a1.0001 1.0001 0 0 0 -0.125 -0.0625c0.22271 0.0857 0.2111 0.0688-0.0625-0.0625-0.56662-0.27196-0.96779-0.96963-0.8125-1.8438l4.75-26.75c0.15899-0.89491 0.8505-1.4658 1.5-1.5z"/>
      <path id="path4048" style="block-progression:tb;color:#000000;text-transform:none;text-indent:0" d="m-446.92 526.98a1.0001 1.0001 0 0 0 -0.78125 0.65625l-5 14.312-15.188-0.0312a1.0001 1.0001 0 0 0 -0.59375 1.7812l12.094 9.1562-4.75 14.406a1.0001 1.0001 0 0 0 1.5312 1.125l12.469-8.625 12.219 8.9375a1.0001 1.0001 0 0 0 1.5625 -1.0938l-4.375-14.5 12.281-8.875a1.0001 1.0001 0 0 0 -0.5625 -1.8125l-15.156-0.3438-4.6562-14.406a1.0001 1.0001 0 0 0 -1.0938 -0.6875zm0.0937 4.1562 3.9688 12.25a1.0001 1.0001 0 0 0 0.9375 0.6875l12.875 0.28125-10.438 7.5312a1.0001 1.0001 0 0 0 -0.375 1.0938l3.7188 12.312-10.406-7.5625a1.0001 1.0001 0 0 0 -1.1562 -0.0312l-10.594 7.3438 4-12.219a1.0001 1.0001 0 0 0 -0.34375 -1.125l-10.219-7.7812 12.844 0.0312a1.0001 1.0001 0 0 0 0.96875 -0.65625l4.2188-12.156z"/>
      <path id="path4050" style="block-progression:tb;color:#000000;text-transform:none;text-indent:0" d="m-413.71 556.78a1.0001 1.0001 0 0 0 -0.78125 0.65625l-5 14.312-15.188-0.0312a1.0001 1.0001 0 0 0 -0.59375 1.7812l12.094 9.1562-4.75 14.406a1.0001 1.0001 0 0 0 1.5312 1.125l12.469-8.625 12.219 8.9375a1.0001 1.0001 0 0 0 1.5625 -1.0938l-4.375-14.5 12.281-8.875a1.0001 1.0001 0 0 0 -0.5625 -1.8125l-15.156-0.3438-4.6562-14.406a1.0001 1.0001 0 0 0 -1.0938 -0.6875zm0.0937 4.1562 3.9688 12.25a1.0001 1.0001 0 0 0 0.9375 0.6875l12.875 0.28125-10.438 7.5312a1.0001 1.0001 0 0 0 -0.375 1.0938l3.7188 12.312-10.406-7.5625a1.0001 1.0001 0 0 0 -1.1562 -0.0312l-10.594 7.3438 4-12.219a1.0001 1.0001 0 0 0 -0.34375 -1.125l-10.219-7.7812 12.844 0.0312a1.0001 1.0001 0 0 0 0.96875 -0.65625l4.2188-12.156z"/>
      <path id="path4052" style="block-progression:tb;color:#000000;text-transform:none;text-indent:0" d="m-376.97 583.93a1.0001 1.0001 0 0 0 -0.78125 0.65625l-5 14.312-15.188-0.0312a1.0001 1.0001 0 0 0 -0.59375 1.7812l12.094 9.1562-4.75 14.406a1.0001 1.0001 0 0 0 1.5312 1.125l12.469-8.625 12.219 8.9375a1.0001 1.0001 0 0 0 1.5625 -1.0938l-4.375-14.5 12.281-8.875a1.0001 1.0001 0 0 0 -0.5625 -1.8125l-15.156-0.3438-4.6562-14.406a1.0001 1.0001 0 0 0 -1.0938 -0.6875zm0.0937 4.1562 3.9688 12.25a1.0001 1.0001 0 0 0 0.9375 0.6875l12.875 0.28125-10.438 7.5312a1.0001 1.0001 0 0 0 -0.375 1.0938l3.7188 12.312-10.406-7.5625a1.0001 1.0001 0 0 0 -1.1562 -0.0312l-10.594 7.3438 4-12.219a1.0001 1.0001 0 0 0 -0.34375 -1.125l-10.219-7.7812 12.844 0.0312a1.0001 1.0001 0 0 0 0.96875 -0.65625l4.2188-12.156z"/>
      <path id="path4054" style="block-progression:tb;color:#000000;text-transform:none;text-indent:0" d="m-337.32 607.41a1.0001 1.0001 0 0 0 -0.78125 0.65625l-5 14.312-15.188-0.0312a1.0001 1.0001 0 0 0 -0.59375 1.7812l12.094 9.1562-4.75 14.406a1.0001 1.0001 0 0 0 1.5312 1.125l12.469-8.625 12.219 8.9375a1.0001 1.0001 0 0 0 1.5625 -1.0938l-4.375-14.5 12.281-8.875a1.0001 1.0001 0 0 0 -0.5625 -1.8125l-15.156-0.3438-4.6562-14.406a1.0001 1.0001 0 0 0 -1.0938 -0.6875zm0.0937 4.1562 3.9688 12.25a1.0001 1.0001 0 0 0 0.9375 0.6875l12.875 0.28125-10.438 7.5312a1.0001 1.0001 0 0 0 -0.375 1.0938l3.7188 12.312-10.406-7.5625a1.0001 1.0001 0 0 0 -1.1562 -0.0312l-10.594 7.3438 4-12.219a1.0001 1.0001 0 0 0 -0.34375 -1.125l-10.219-7.7812 12.844 0.0312a1.0001 1.0001 0 0 0 0.96875 -0.65625l4.2188-12.156z"/>
      <path id="path4056" style="block-progression:tb;color:#000000;text-transform:none;text-indent:0" d="m-289.34 626.98a1.0001 1.0001 0 0 0 -0.78125 0.65625l-5 14.312-15.188-0.0312a1.0001 1.0001 0 0 0 -0.59375 1.7812l12.094 9.1562-4.75 14.406a1.0001 1.0001 0 0 0 1.5312 1.125l12.469-8.625 12.219 8.9375a1.0001 1.0001 0 0 0 1.5625 -1.0938l-4.375-14.5 12.281-8.875a1.0001 1.0001 0 0 0 -0.5625 -1.8125l-15.156-0.3438-4.6562-14.406a1.0001 1.0001 0 0 0 -1.0938 -0.6875zm0.0937 4.1562 3.9688 12.25a1.0001 1.0001 0 0 0 0.9375 0.6875l12.875 0.28125-10.438 7.5312a1.0001 1.0001 0 0 0 -0.375 1.0938l3.7188 12.312-10.406-7.5625a1.0001 1.0001 0 0 0 -1.1562 -0.0312l-10.594 7.3438 4-12.219a1.0001 1.0001 0 0 0 -0.34375 -1.125l-10.219-7.7812 12.844 0.0312a1.0001 1.0001 0 0 0 0.96875 -0.65625l4.2188-12.156z"/>
      <path id="path4058" style="block-progression:tb;color:#000000;text-transform:none;text-indent:0" d="m-232.14 640.75a1.0001 1.0001 0 0 0 -0.78125 0.65625l-5 14.312-15.188-0.0312a1.0001 1.0001 0 0 0 -0.59375 1.7812l12.094 9.1562-4.75 14.406a1.0001 1.0001 0 0 0 1.5312 1.125l12.469-8.625 12.219 8.9375a1.0001 1.0001 0 0 0 1.5625 -1.0938l-4.375-14.5 12.281-8.875a1.0001 1.0001 0 0 0 -0.5625 -1.8125l-15.156-0.3438-4.6562-14.406a1.0001 1.0001 0 0 0 -1.0938 -0.6875zm0.0937 4.1562 3.9688 12.25a1.0001 1.0001 0 0 0 0.9375 0.6875l12.875 0.28125-10.438 7.5312a1.0001 1.0001 0 0 0 -0.375 1.0938l3.7188 12.312-10.406-7.5625a1.0001 1.0001 0 0 0 -1.1562 -0.0312l-10.594 7.3438 4-12.219a1.0001 1.0001 0 0 0 -0.34375 -1.125l-10.219-7.7812 12.844 0.0312a1.0001 1.0001 0 0 0 0.96875 -0.65625l4.2188-12.156z"/>
      <path id="rect4060" style="block-progression:tb;color:#000000;text-transform:none;text-indent:0" d="m-421.79 525.74c-1.9377 1.8325-2.0174 4.904-0.17742 6.8345s4.9234 2.0106 6.8611 0.17811l91.182-86.232c1.9377-1.8325 2.0174-4.904 0.17742-6.8345s-4.9234-2.0106-6.8611-0.17812l-91.182 86.232zm1.3798 1.4478 91.182-86.232c1.1578-1.0949 2.9287-1.0489 4.0281 0.10457s1.0536 2.9176-0.10417 4.0125l-91.182 86.232c-1.1578 1.0949-2.9287 1.0489-4.0281-0.10457s-1.0536-2.9176 0.10416-4.0125z"/>
      <path id="rect4062" style="block-progression:tb;color:#000000;text-transform:none;text-indent:0" d="m-393.78 554.27c-1.9377 1.8325-1.9958 4.9266-0.15587 6.8571 1.84 1.9305 4.9234 2.0106 6.8611 0.17811l116.34-110.02c1.9377-1.8325 2.0174-4.904 0.17742-6.8345s-4.945-2.0332-6.8826-0.20074l-116.34 110.02zm1.3798 1.4478 116.34-110.02c1.1578-1.0949 2.9503-1.0263 4.0497 0.12719s1.0536 2.9176-0.10416 4.0125l-116.34 110.02c-1.1578 1.0949-2.9287 1.0489-4.0281-0.10457s-1.0752-2.9402 0.0826-4.0351z"/>
      <path id="rect4064" style="block-progression:tb;color:#000000;text-transform:none;text-indent:0" d="m-358.93 578.51c-1.9377 1.8325-2.0174 4.904-0.17742 6.8345s4.9234 2.0106 6.8611 0.17812l134.1-126.81c1.9377-1.8325 2.0174-4.904 0.17742-6.8345s-4.9234-2.0106-6.8611-0.17812l-134.09 126.81zm1.3798 1.4478 134.09-126.81c1.1578-1.0949 2.9287-1.049 4.0281 0.10457 1.0994 1.1535 1.0536 2.9176-0.10416 4.0125l-134.09 126.81c-1.1578 1.0949-2.9287 1.049-4.0281-0.10457-1.0994-1.1535-1.0536-2.9176 0.10417-4.0125z"/>
      <path id="rect4066" style="block-progression:tb;color:#000000;text-transform:none;text-indent:0" d="m-318.27 604.01c-1.9377 1.8325-2.0174 4.904-0.17742 6.8345s4.945 2.0332 6.8826 0.20073l109.85-103.88c1.9377-1.8325 1.9958-4.9266 0.15586-6.8571-1.84-1.9305-4.9234-2.0106-6.8611-0.17812l-109.85 103.88zm1.3798 1.4478 109.85-103.88c1.1578-1.0949 2.9287-1.049 4.0281 0.10457 1.0994 1.1535 1.0752 2.9402-0.0826 4.0351l-109.85 103.88c-1.1578 1.0949-2.9503 1.0263-4.0497-0.12719s-1.0536-2.9176 0.10417-4.0125z"/>
      <path id="rect4068" style="block-progression:tb;color:#000000;text-transform:none;text-indent:0" d="m-271.05 624.48c-1.9377 1.8325-2.0174 4.904-0.17743 6.8345s4.9234 2.0106 6.8611 0.17811l90.774-85.846c1.9377-1.8325 2.0174-4.904 0.17742-6.8345s-4.9234-2.0106-6.8611-0.17811l-90.774 85.846zm1.3798 1.4478 90.774-85.846c1.1578-1.0949 2.9287-1.0489 4.0281 0.10457s1.0536 2.9176-0.10416 4.0125l-90.774 85.846c-1.1578 1.0949-2.9287 1.0489-4.0281-0.10457s-1.0536-2.9176 0.10416-4.0125z"/>
      <path id="rect4070" style="block-progression:tb;color:#000000;text-transform:none;text-indent:0" d="m-212.46 639.39c-1.9377 1.8325-2.0174 4.904-0.17742 6.8345s4.9234 2.0106 6.8611 0.17812l69.999-66.199c1.9377-1.8325 2.0174-4.904 0.17742-6.8345s-4.9234-2.0106-6.8611-0.17811l-69.999 66.199zm1.3798 1.4478 69.999-66.199c1.1578-1.0949 2.9287-1.0489 4.0281 0.10457s1.0536 2.9176-0.10416 4.0125l-69.999 66.199c-1.1578 1.0949-2.9287 1.049-4.0281-0.10457-1.0994-1.1535-1.0536-2.9176 0.10416-4.0125z"/>
      <path id="rect4074" style="block-progression:tb;color:#000000;text-transform:none;text-indent:0" d="m-265.24 685.61c-1.9377 1.8325-2.0174 4.904-0.17742 6.8345s4.9234 2.0106 6.8611 0.17812l2.1797-2.0613c1.9377-1.8325 2.0174-4.904 0.17742-6.8345s-4.9234-2.0106-6.8611-0.17811l-2.1797 2.0613zm1.3798 1.4478 2.1797-2.0613c1.1578-1.0949 2.9287-1.0489 4.0281 0.10457s1.0536 2.9176-0.10416 4.0125l-2.1797 2.0613c-1.1578 1.0949-2.9287 1.049-4.0281-0.10457-1.0994-1.1535-1.0536-2.9176 0.10416-4.0125z"/>
      <path id="rect4076" style="block-progression:tb;color:#000000;text-transform:none;text-indent:0" d="m-322.82 670.94c-1.9377 1.8325-2.0174 4.904-0.17743 6.8345s4.9234 2.0106 6.8611 0.17812l2.157-2.0399c1.9377-1.8325 2.0174-4.904 0.17742-6.8345s-4.9234-2.0106-6.8611-0.17811l-2.157 2.0399zm1.3798 1.4478 2.157-2.0399c1.1578-1.0949 2.9287-1.0489 4.0281 0.10457s1.0536 2.9176-0.10416 4.0125l-2.157 2.0398c-1.1578 1.0949-2.9287 1.049-4.0281-0.10457-1.0994-1.1535-1.0536-2.9176 0.10417-4.0125z"/>
      <path id="rect4078" style="block-progression:tb;color:#000000;text-transform:none;text-indent:0" d="m-369.53 651.5c-1.9377 1.8325-2.0174 4.904-0.17742 6.8345s4.9234 2.0106 6.8611 0.17812l2.157-2.0399c1.9377-1.8325 2.0174-4.904 0.17742-6.8345s-4.9234-2.0106-6.8611-0.17811l-2.157 2.0399zm1.3798 1.4478 2.157-2.0399c1.1578-1.0949 2.9287-1.0489 4.0281 0.10457s1.0536 2.9176-0.10417 4.0125l-2.157 2.0399c-1.1578 1.0949-2.9287 1.0489-4.0281-0.10457s-1.0536-2.9176 0.10416-4.0125z"/>
      <path id="rect4080" style="block-progression:tb;color:#000000;text-transform:none;text-indent:0" d="m-410.94 624.73c-1.9377 1.8325-2.0174 4.904-0.17742 6.8345s4.9234 2.0106 6.8611 0.17812l2.157-2.0399c1.9377-1.8325 2.0174-4.904 0.17742-6.8345s-4.9234-2.0106-6.8611-0.17811l-2.157 2.0399zm1.3798 1.4478 2.157-2.0399c1.1578-1.0949 2.9287-1.0489 4.0281 0.10457s1.0536 2.9176-0.10416 4.0125l-2.157 2.0399c-1.1578 1.0949-2.9287 1.0489-4.0281-0.10457s-1.0536-2.9176 0.10417-4.0125z"/>
      <path id="rect4082" style="block-progression:tb;color:#000000;text-transform:none;text-indent:0" d="m-444.29 599.75c-1.9377 1.8325-2.0174 4.904-0.17742 6.8345s4.9234 2.0106 6.8611 0.17811l2.1797-2.0613c1.9377-1.8325 2.0174-4.904 0.17742-6.8345s-4.9234-2.0106-6.8611-0.17812l-2.1797 2.0613zm1.3798 1.4478 2.1797-2.0613c1.1578-1.0949 2.9287-1.049 4.0281 0.10457 1.0994 1.1535 1.0536 2.9176-0.10416 4.0125l-2.1797 2.0613c-1.1578 1.0949-2.9287 1.0489-4.0281-0.10457s-1.0536-2.9176 0.10416-4.0125z"/>
      <path id="rect4084" style="block-progression:tb;color:#000000;text-transform:none;text-indent:0" d="m-473.07 573.72c-1.9377 1.8325-2.0174 4.904-0.17743 6.8345s4.9234 2.0106 6.8611 0.17812l2.157-2.0399c1.9377-1.8325 2.0174-4.904 0.17743-6.8345s-4.9234-2.0106-6.8611-0.17811l-2.157 2.0398zm1.3798 1.4478 2.157-2.0399c1.1578-1.0949 2.9287-1.0489 4.0281 0.10457s1.0536 2.9176-0.10416 4.0125l-2.157 2.0398c-1.1578 1.0949-2.9287 1.049-4.0281-0.10457-1.0994-1.1535-1.0536-2.9176 0.10416-4.0125z"/>
      <path id="path4095" fill-opacity=".31373" transform="matrix(1.2167 0 0 1.2177 -832.53 -339.72)" d="m824.29 616.46c0 87.971-71.634 159.29-160 159.29s-160-71.315-160-159.29c0-87.971 71.634-159.29 160-159.29s160 71.315 160 159.29z"/>
      <path id="path4097" fill-opacity=".31373" d="m78.635 62.495c3.6971-1.3658 6.5669 2.6645 5.5558 5.8084l-169.2 159.86-17.173 6.566z"/>
      <path id="path4097-9" fill-opacity=".31373" d="m101.75 92.875c3.6971-1.3658 6.5669 2.6645 5.5558 5.8084l-126.27 119.45-11.617 0.00001z"/>
      <path id="path4097-9-7" fill-opacity=".31373" d="m124.24 130.82c3.6971-1.3658 6.5669 2.6645 5.5558 5.8084l-95.712 89.904-8.5863-2.2728z"/>
      <path id="path4097-9-7-5" fill-opacity=".31373" d="m147.6 172.11c3.6971-1.3658 6.5669 2.6645 5.5558 5.8084l-73.994 69.448-7.0711-3.7881z"/>
      <path id="path4097-9-7-5-3" fill-opacity=".31373" d="m167.55 219.21c3.6971-1.3658 6.5669 2.6645 5.5558 5.8084l-56.821 53.538-5.3033-5.5558z"/>
      <path id="path4097-9-7-5-3-6" fill-opacity=".31373" d="m179.29 274.38c3.6971-1.3658 6.5669 2.6645 5.5558 5.8084l-39.649 37.376-3.7881-6.8185z"/>
      <path id="path4232" d="m83.294 25.748 15.357 0.17857 5.5357-14.643 4.8214 14.821 15.179 0.35714-12.322 9.2857 4.2858 14.464-12.679-8.5714-12.679 8.75 4.6429-14.821z" fill-opacity=".31373"/>
      <path id="path4232-2" d="m106.42 63.466 15.357 0.17857 5.5357-14.643 4.8214 14.821 15.179 0.35714-12.322 9.2857 4.2858 14.464-12.679-8.5714-12.679 8.75 4.6429-14.821z" fill-opacity=".31373"/>
      <path id="path4232-0" d="m134.45 100.59 15.357 0.17857 5.5357-14.643 4.8214 14.821 15.179 0.35714-12.322 9.2857 4.2858 14.464-12.679-8.5714-12.679 8.75 4.6429-14.821z" fill-opacity=".31373"/>
      <path id="path4232-24" d="m155.67 141 15.357 0.17857 5.5357-14.643 4.8214 14.821 15.179 0.35714-12.322 9.2857 4.2858 14.464-12.679-8.5714-12.679 8.75 4.6429-14.821z" fill-opacity=".31373"/>
      <path id="path4232-4" d="m174.61 191.76 15.357 0.17857 5.5357-14.643 4.8214 14.821 15.179 0.35714-12.322 9.2857 4.2858 14.464-12.679-8.5714-12.679 8.75 4.6429-14.821z" fill-opacity=".31373"/>
      <path id="path4232-3" d="m184.2 244.03 15.357 0.17857 5.5357-14.643 4.8214 14.821 15.179 0.35714-12.322 9.2857 4.2858 14.464-12.679-8.5714-12.679 8.75 4.6429-14.821z" fill-opacity=".31373"/>
      <path id="path4232-45" d="m-467.09 542.03 15.357 0.17857 5.5357-14.643 4.8214 14.821 15.179 0.35714-12.322 9.2857 4.2858 14.464-12.679-8.5714-12.679 8.75 4.6429-14.821z" fill-opacity=".31373"/>
      <path id="path4232-6" d="m-433.5 572.33 15.357 0.17857 5.5357-14.643 4.8214 14.821 15.179 0.35714-12.322 9.2857 4.2858 14.464-12.679-8.5714-12.679 8.75 4.6429-14.821z" fill-opacity=".31373"/>
      <path id="path4232-34" d="m-397.14 599.1 15.357 0.17857 5.5357-14.643 4.8214 14.821 15.179 0.35714-12.322 9.2857 4.2858 14.464-12.679-8.5714-12.679 8.75 4.6429-14.821z" fill-opacity=".31373"/>
      <path id="path4232-8" d="m-357.49 623.34 15.357 0.17857 5.5357-14.643 4.8214 14.821 15.179 0.35714-12.322 9.2857 4.2858 14.464-12.679-8.5714-12.679 8.75 4.6429-14.821z" fill-opacity=".31373"/>
      <path id="path4232-86" d="m-309.51 642.28 15.357 0.17857 5.5357-14.643 4.8214 14.821 15.179 0.35714-12.322 9.2857 4.2858 14.464-12.679-8.5714-12.679 8.75 4.6429-14.821z" fill-opacity=".31373"/>
      <path id="path4232-62" d="m-252.69 656.93 15.357 0.17857 5.5357-14.643 4.8214 14.821 15.179 0.35714-12.322 9.2857 4.2858 14.464-12.679-8.5714-12.679 8.75 4.6429-14.821z" fill-opacity=".31373"/>
      <path id="path4097-9-0" fill-opacity=".31373" d="m-329.17 439.31c3.6971-1.3658 6.5669 2.6645 5.5558 5.8084l-92.05 86.873c-6.6896 3.1433-7.3415-3.4165-5.5558-5.6821z"/>
      <path id="path4097-9-0-0" fill-opacity=".31373" d="m-276.17 444.3c3.6971-1.3658 6.5669 2.6645 5.5558 5.8084l-117.18 110.74c-6.6896 3.1433-7.3415-3.4165-5.5558-5.6821z"/>
      <path id="path4097-9-0-2" fill-opacity=".31373" d="m-223.9 451.7c3.6971-1.3658 6.5669 2.6645 5.5558 5.8084l-134.73 127.58c-6.6896 3.1433-7.3415-3.4165-5.5558-5.6821z"/>
      <path id="path4097-9-0-8" fill-opacity=".31373" d="m-206.67 499.73c3.6971-1.3658 6.5669 2.6645 5.5558 5.8084l-111.24 104.8c-6.6896 3.1433-7.3415-3.4165-5.5558-5.6821z"/>
      <path id="path4097-9-0-1" fill-opacity=".31373" d="m-178.57 538.12c3.6971-1.3658 6.5669 2.6645 5.5558 5.8084l-92.05 86.873c-6.6896 3.1433-7.3415-3.4165-5.5558-5.6821z"/>
      <path id="path4097-9-0-5" fill-opacity=".31373" d="m-140.69 572.97c3.6971-1.3658 6.5669 2.6645 5.5558 5.8084l-71.089 66.923c-6.6896 3.1433-7.3415-3.4165-5.5558-5.6821z"/>
      <path id="path4097-9-0-5-4" fill-opacity=".31373" d="m-261.38 683.54c3.7602-1.6815 6.6932 2.9801 5.3033 5.2402l-3.4632 3.4162c-5.6164 2.9539-7.1521-3.4796-5.3664-5.7452z"/>
      <path id="path4097-9-0-5-4-2" fill-opacity=".31373" d="m-319.28 668.91c3.7602-1.6815 6.6932 2.9801 5.3033 5.2402l-3.4632 3.4162c-5.6164 2.9539-7.1521-3.4796-5.3664-5.7452z"/>
      <path id="path4097-9-0-5-4-0" fill-opacity=".31373" d="m-366.06 649.63c3.7602-1.6815 6.6932 2.9801 5.3033 5.2402l-3.4632 3.4162c-5.6164 2.9539-7.1521-3.4796-5.3664-5.7452z"/>
      <path id="path4097-9-0-5-4-1" fill-opacity=".31373" d="m-407.14 622.48c3.7602-1.6815 6.6932 2.9801 5.3033 5.2402l-3.4632 3.4162c-5.6164 2.9539-7.1521-3.4796-5.3664-5.7452z"/>
      <path id="path4097-9-0-5-4-9" fill-opacity=".31373" d="m-440.35 597.84c3.7602-1.6815 6.6932 2.9801 5.3033 5.2402l-3.4632 3.4162c-5.6164 2.9539-7.1521-3.4796-5.3664-5.7452z"/>
      <path id="path4097-9-0-5-4-5" fill-opacity=".31373" d="m-469.28 571.41c3.7602-1.6815 6.6932 2.9801 5.3033 5.2402l-3.4632 3.4162c-5.6164 2.9539-7.1521-3.4796-5.3664-5.7452z"/>
      <path id="path4097-9-0-5-4-97" fill-opacity=".31373" d="m227.15 229.98c3.7602-1.6815 6.6932 2.9801 5.3033 5.2402l-3.4632 3.4162c-5.6164 2.9539-7.1521-3.4796-5.3664-5.7452z"/>
      <path id="path4097-9-0-5-4-6" fill-opacity=".31373" d="m216.44 171.77c3.7602-1.6815 6.6932 2.9801 5.3033 5.2402l-3.4632 3.4162c-5.6164 2.9539-7.1521-3.4796-5.3664-5.7452z"/>
      <path id="path4097-9-0-5-4-17" fill-opacity=".31373" d="m198.94 124.27c3.7602-1.6815 6.6932 2.9801 5.3033 5.2402l-3.4632 3.4162c-5.6164 2.9539-7.1521-3.4796-5.3664-5.7452z"/>
      <path id="path4097-9-0-5-4-15" fill-opacity=".31373" d="m174.65 80.342c3.7602-1.6815 6.6932 2.9801 5.3033 5.2402l-3.4632 3.4162c-5.6164 2.9539-7.1521-3.4797-5.3664-5.7452z"/>
      <path id="path4097-9-0-5-4-3" fill-opacity=".31373" d="m152.51 45.699c3.7602-1.6815 6.6932 2.9801 5.3033 5.2402l-6.3204 5.2019c-5.6164 2.9539-7.1521-3.4796-5.3664-5.7452z"/>
      <path id="path4097-9-0-5-4-69" fill-opacity=".31373" d="m132.69 13.824c3.7602-1.6815 5.2646 1.7301 3.8747 3.9902l-11.677 9.3983c-4.9914-0.17108-9.1164 0.71678-6.2593-2.0845z"/>
      <path id="path3107" fill-opacity=".31373" d="m-158.48 4.0529 7.7705-0.25254 10.714-37.143c-17.81-2.4805-34.308-4.8892-48.306-3.1938-42.113 5.1007-65.657 29.05-66.737 53.324-0.51913 11.667 0.86195 27.409 8.7168 40.019 7.6358 12.259 21.473 21.559 39.898 21.28 14.282 0.46262 27.788-2.1824 41.429-4.2857l10-30-6.4286-3.5714c-7.6108 15.866-21.01 27.532-42.691 28.658-31.781-2.8808-28.929-29.449-29.156-42.944-0.25977-15.462 8.0986-37.07 28.276-47.143 7.3653-2.6754 10.617-6.265 29.286-6.4286 7.6729 1.567 12.506 3.2852 13.406 10.628 2.1989 6.8257 3.051 15.07 3.824 21.053z"/>
      <path id="path3877" fill-opacity=".31373" d="m-123.4-51.905 0.41579-2.0636 35.697 0.0433-1.7678 9.3439-5.14 0.0587c-0.93169-4.7689-3.1377-5.991-5.7191-5.6145h-8.5863l-3.0304 14.142h5.3033c3.3324 0.2239 4.1651-2.1746 5.2727-4.1299l3.8187-0.16325-2.4514 12.405h-4.1146c0.14958-2.0762-0.53453-3.6892-2.5254-4.5763h-6.0609l-3.6401 16.088 10.459-0.17857c4.7195-1.7143 5.1781-4.7396 7.0711-7.3236l5.0508 0.1046-2.9718 11.081-35.414 0.17857 0.25253-2.0203c2.7-0.20575 3.7221-1.6699 4.5457-3.283l6.566-30.81c0.35541-2.0502-1.0167-2.8912-3.0305-3.283z"/>
      <path id="path3879" fill-opacity=".31373" d="m-81.693-51.914 0.625-2.1428 18.661 0.17857-0.44643 1.6964c-3.0116 0.85331-4.3072 2.4216-4.4643 4.4643l-5.2679 24.821c-0.42569 3.9311 1.1708 6.5889 5.5357 7.1429 5.7286 0.72705 10.611-2.2236 11.339-6.1607l5.7143-27.054c0.17209-2.331-1.5224-2.5288-2.9464-3.0357l0.53571-2.0536 15.893 0.0893-0.44643 1.875c-2.3666 0.45571-4.644 1.0302-4.9107 4.2857l-5.625 25.714c-2.3197 4.318-5.7769 7.1977-10 8.6607-3.062 0.48035-4.4944 1.1644-9.2857 1.4286-11.354 0.10506-13.018-2.7069-14.821-3.9286-2.738-4.5287-1.7921-5.9875-1.875-8.3036l5-25.446c0.0286-1.8441-1.9447-1.6863-3.2143-2.2322z"/>
      <path id="path3881" fill-opacity=".31373" d="m-30.719-54.132-0.34375 2.2188c1.3576 0.51373 2.9076 0.80556 3.125 2.6875l-6.5312 31.156c-0.43191 2.0042-2.0935 3.1312-4.9062 3.4688l-0.34375 2.0625 19.281 0.0937 0.25-2.25c-3.4004-0.71923-2.9842-1.9462-2.9375-3.125l2.4062-12.125 3.6562 0.25c1.3393 0.0232 2.692 0.38341 4.0312 3.6875 0.76091 4.9337 3.0361 9.26 4.9062 13.75l13.844-0.2812 0.8125-2.1562c-1.1462-0.26574-2.8682-0.79555-3.8125-1.9688-1.1398-1.4161-1.4856-3.6549-2.625-6.3125-0.56037-4.1613-3.3324-6.3403-5.9688-8.6562 3.2001-0.18018 11.785-4.8886 12.344-11.625 0.40541-4.886-0.27697-8.2252-9.8438-10.438l-27.344-0.4375zm20.812 3.8125c3.7825 0.7711 6.1491 2.9848 5.1875 8.5-2.9956 8.8354-8.6287 8.1649-11.156 8.5625l-4.125-0.25 3.5-16.719 6.5938-0.0937z"/>
      <path id="path3886" fill-opacity=".31373" d="m39.999-54.694c-16.744 1.1045-22.316 9.6408-25.625 19.938-5.3328 22.868 11.963 22.828 17.5 22.656 9.0104-0.93762 21.246-2.4559 25.531-21.25 3.0728-14.375-2.177-20.241-17.406-21.344zm0.28125 3.8438c9.4969 1.2798 6.6085 12.056 5.9688 18.844-5.615 17.774-11.328 15.793-14.719 16.156-7.0278-0.62531-8.5953-7.6165-5.625-19.906 2.5953-7.4533 5.0539-15.062 14.375-15.094z"/>
      <path id="path3877-7" fill-opacity=".31373" d="m-139.01 5.4748 0.48947-3.7435 59.318 0.16784-2.4831 17.129-8.2583 0.0172c-1.4969-8.6511-5.0412-11.493-9.1887-10.81l-15.313-0.08929-4.1546 26.19 9.3242-0.44643c5.354 0.40616 6.6919-3.9447 8.4714-7.4918l6.6711 0.061-3.4029 21.968-7.0572 0.26786c0.24033-3.7663-1.5731-6.5139-4.7717-8.1231h-10.184l-5.0449 29.185 17.875 0.03321c7.5827-3.1098 8.6767-9.0443 11.718-13.732l7.6685 0.27904-4.239 19.923-58.684 0.23465 0.40574-3.6649c4.4725-0.41806 7.1213-3.4097 7.3034-5.9555l8.6744-55.354c0.57102-3.7192-0.65139-4.9769-3.8868-5.6876z"/>
      <path id="path3909" fill-opacity=".31373" d="m-77.05 1.5682 0.0893 3.3928 8.8393 1.9643c0.87256 1.1232 2.5235 0.91209 1.875 4.6429l-9.0178 55.982c-1.337 1.6803-0.68606 3.451-6.875 4.9107l-0.53572 3.4822 22.589 0.26785 0.26786-3.75c-5.9953-1.4052-4.6832-3.4192-5.3572-5.2678l7.1429-46.696 26.875 55.536 15.536 0.26786 10.625-65.089c1.534-6.5387 6.1725-5.0025 9.9116-5.8045l0.53571-3.6607-33.304 0.17857-0.0893 3.5714 7.5 0.44643c3.0649 0.2441 5.9063 0.77736 5 6.1607l-6.1607 41.875-0.49071 0.11453c-6.608-15.917-15.789-34.406-24.421-52.347z"/>
      <path id="path3911" fill-opacity=".31373" d="m4.5575 20.765 3.4821-19.108 64.107 0.3577-2.947 18.571-7.678 0.089c-0.307-10.8-3.906-12.38-8.215-12.589l-5.9822 0.0893-10.268 58.125c-0.59962 5.9532 2.9103 5.605 5.7143 6.3393l-0.53571 3.75-30.446-0.26785 0.44643-3.3929c6.8279-1.3632 6.9963-4.0071 7.8571-6.5179l10.269-58.035-5.625-0.0889c-7.15 0.4608-9.76 7.0639-13.036 12.768z"/>
      <path id="path4227" fill-opacity=".31373" d="m198.84 309.16c2.0766-2.378 4.0462-2.7639 5.619 0.56822l-4.4194 23.802 4.6088 0.12627 2.2097-11.869c1.1005-2.5642 4.1919-2.7271 5.3664 0.37881l-1.5152 11.617 3.9775-0.0631c2.4179 1.4958 1.5506 4.758-0.69448 5.3664l-4.672 0.50508-0.88388 6.2503 11.112 0.31568c2.469 0.12773 4.4332 5.2621-0.50508 6.0609h-14.9c-2.7522-0.97449-2.6276-2.6208-2.0834-4.4194l1.3258-8.46h-6.3135c-1.8954-0.52219-3.5343-1.2849-2.7779-4.2932z"/>
      <path id="path3918" stroke-width="2" stroke="#000" fill-opacity=".31373" d="m-473.65-1.8294c3.3839-9.8889 6.7381-15.145 22.857-14.286l107.14 5.7143c34.639 0.72224 45.768-12.866 59.286-25l20.714 12.857-36.071 85-146.79-4.2857-37.857 91.071c10.673-13.384 44.513-11.547 50-11.429 23.594 0.50826 124.08 29.826 124.29 123.93 0.0957 43.273-21.139 89.135-52.857 118.57-33.563 31.149-83.497 46.077-129.29 46.429-29.439 0.22595-60.583-10.18-83.571-28.571-12.436-9.9491-24.259-27.317-25.357-40.357-1.4312-16.995 1.3388-37.572 20-44.286 21.204-7.6284 30.387-2.884 44.286 10 10.878 10.084 11.682 26.648 16.786 44.643 4.1013 14.46 17.113 26.581 32.143 26.429 40.473-0.40925 75.106-33.142 90.714-80.714 10.316-31.44 7.0446-72.42-23.571-96.429-20.914-16.401-52.294-17.557-78.571-13.571-12.423 1.8844-33.571 17.143-33.571 17.143l-14.286-7.8571z"/>
    </g>
  </g>
  <metadata>
    <rdf:RDF>
      <cc:Work>
        <dc:format>image/svg+xml</dc:format>
        <dc:type rdf:resource="http://purl.org/dc/dcmitype/StillImage"/>
        <cc:license rdf:resource="http://creativecommons.org/licenses/publicdomain/"/>
        <dc:publisher>
          <cc:Agent rdf:about="http://openclipart.org/">
            <dc:title>Openclipart</dc:title>
          </cc:Agent>
        </dc:publisher>
        <dc:title>five euro cent</dc:title>
        <dc:date>2013-10-12T14:11:08</dc:date>
        <dc:description>five euro cent, colored &#xD;\n &#xD;\nUsed Clipart &#xD;\nhttp://openclipart.org/detail/174758/one-euro-cent-by-manio1-174758</dc:description>
        <dc:source>http://openclipart.org/detail/184797/five-euro-cent-by-frankes-184797</dc:source>
        <dc:creator>
          <cc:Agent>
            <dc:title>frankes</dc:title>
          </cc:Agent>
        </dc:creator>
        <dc:subject>
          <rdf:Bag>
            <rdf:li>cent</rdf:li>
            <rdf:li>cents</rdf:li>
            <rdf:li>clip art</rdf:li>
            <rdf:li>clipart</rdf:li>
            <rdf:li>coin</rdf:li>
            <rdf:li>coins</rdf:li>
            <rdf:li>euro</rdf:li>
            <rdf:li>money</rdf:li>
          </rdf:Bag>
        </dc:subject>
      </cc:Work>
      <cc:License rdf:about="http://creativecommons.org/licenses/publicdomain/">
        <cc:permits rdf:resource="http://creativecommons.org/ns#Reproduction"/>
        <cc:permits rdf:resource="http://creativecommons.org/ns#Distribution"/>
        <cc:permits rdf:resource="http://creativecommons.org/ns#DerivativeWorks"/>
      </cc:License>
    </rdf:RDF>
  </metadata>
</svg>
