<?xml version="1.0" encoding="iso-8859-1"?>
<!-- Generator: Adobe Illustrator 19.0.0, SVG Export Plug-In . SVG Version: 6.00 Build 0)  -->
<svg version="1.1" id="Layer_1" xmlns="http://www.w3.org/2000/svg" xmlns:xlink="http://www.w3.org/1999/xlink" x="0px" y="0px"
	 viewBox="0 0 512 512" style="enable-background:new 0 0 512 512;" xml:space="preserve">
	 <symbol viewBox=" 0 0 512 512" >
	 	<g fill="#fff"> </g>
	 </symbol>
<g>
	<g>
		<g fill="#fff" stroke="none">
			<circle cx="256" cy="345.317" r="8"/>
			<path d="M350.133,200.783l16.219-6.548c7.369-2.975,7.889-8.282,7.772-10.426c-0.117-2.143-1.219-7.361-8.868-9.509
				l-79.311-22.27c-5.255-1.477-10.407,0.06-13.29,3.862c-2.298,3.033-2.917,7.001-1.746,11.173l22.27,79.309
				c2.316,8.242,8.251,8.882,10.016,8.881c2.037-0.001,7.083-0.759,9.919-7.783l6.551-16.221l22.719,22.719
				c2.915,2.914,6.799,4.519,10.935,4.519c4.138,0,8.022-1.605,10.937-4.522l8.594-8.595c6.03-6.031,6.03-15.843,0-21.874
				L350.133,200.783z M353.318,242.276l-30.889-30.887c-1.515-1.516-3.556-2.343-5.657-2.343c-0.53,0-1.065,0.052-1.596,0.161
				c-2.63,0.536-4.817,2.354-5.822,4.844l-5.092,12.61l-16.116-57.395l57.392,16.116l-12.607,5.09
				c-2.49,1.005-4.309,3.191-4.845,5.823c-0.535,2.63,0.285,5.355,2.182,7.252l30.889,30.888L353.318,242.276z"/>
			<path d="M426.057,120.498H243.732c-4.418,0-8,3.582-8,8v153.653c0,4.418,3.582,8,8,8h182.323c4.419,0,8-3.582,8-8V128.498
				C434.057,124.079,430.475,120.498,426.057,120.498z M251.732,274.152V136.499h166.323v137.653H251.732z"/>
			<path d="M482.667,36.22H29.333C13.158,36.22,0,49.379,0,65.554v288.299c0,16.175,13.158,29.333,29.333,29.333h156.429
				l-6.397,40.094H167.94c-14.475,0-26.251,11.776-26.251,26.251s11.776,26.25,26.251,26.25h176.121
				c14.474,0,26.25-11.776,26.25-26.25c0-14.475-11.776-26.251-26.25-26.251h-11.425l-6.398-40.094h156.429
				c16.174,0,29.333-13.158,29.333-29.333V65.554C512,49.379,498.841,36.22,482.667,36.22z M344.061,439.28
				c5.652,0,10.25,4.598,10.25,10.251c0,5.652-4.597,10.25-10.25,10.25H167.939c-5.652,0-10.251-4.598-10.251-10.25
				c0-5.652,4.598-10.251,10.251-10.251H344.061z M195.567,423.279l6.398-40.094h108.07l6.398,40.094H195.567z M496,353.852
				c0,7.353-5.981,13.333-13.333,13.333H29.333c-7.353,0-13.333-5.981-13.333-13.333v-30.404h480V353.852z M59.019,307.448V95.956
				h393.964v211.492H59.019z M496,307.448h-27.018V87.956c0-4.418-3.581-8-8-8H51.019c-4.418,0-8,3.582-8,8v219.492H16V65.554
				c0-7.353,5.981-13.333,13.333-13.333h453.333c7.353,0,13.333,5.981,13.333,13.333V307.448z"/>
			<path d="M203.733,120.498H82.14c-4.418,0-8,3.582-8,8v58.931c0,4.418,3.582,8,8,8h121.594c4.418,0,8-3.582,8-8v-58.931
				C211.733,124.079,208.151,120.498,203.733,120.498z M195.733,179.429H90.14v-42.931h105.594V179.429z"/>
			<path d="M203.733,215.221H82.14c-4.418,0-8,3.582-8,8v58.931c0,4.418,3.582,8,8,8h121.594c4.418,0,8-3.582,8-8v-58.931
				C211.733,218.803,208.151,215.221,203.733,215.221z M195.733,274.152H90.14v-42.931h105.594V274.152z"/>
		</g>
	</g>
</g>
<g>
</g>
<g>
</g>
<g>
</g>
<g>
</g>
<g>
</g>
<g>
</g>
<g>
</g>
<g>
</g>
<g>
</g>
<g>
</g>
<g>
</g>
<g>
</g>
<g>
</g>
<g>
</g>
<g>
</g>
</svg>
